%TF.GenerationSoftware,KiCad,Pcbnew,7.0.9*%
%TF.CreationDate,2024-04-10T10:39:18-07:00*%
%TF.ProjectId,macrov2.2.001,6d616372-6f76-4322-9e32-2e3030312e6b,2.2.001*%
%TF.SameCoordinates,Original*%
%TF.FileFunction,Legend,Bot*%
%TF.FilePolarity,Positive*%
%FSLAX46Y46*%
G04 Gerber Fmt 4.6, Leading zero omitted, Abs format (unit mm)*
G04 Created by KiCad (PCBNEW 7.0.9) date 2024-04-10 10:39:18*
%MOMM*%
%LPD*%
G01*
G04 APERTURE LIST*
%ADD10C,0.150000*%
%ADD11C,0.120000*%
%ADD12C,0.200000*%
%ADD13C,0.100000*%
%ADD14R,1.752600X1.752600*%
%ADD15C,1.752600*%
G04 APERTURE END LIST*
D10*
X65302506Y-103044819D02*
X65302506Y-103759104D01*
X65302506Y-103759104D02*
X65350125Y-103901961D01*
X65350125Y-103901961D02*
X65445363Y-103997200D01*
X65445363Y-103997200D02*
X65588220Y-104044819D01*
X65588220Y-104044819D02*
X65683458Y-104044819D01*
X64350125Y-104044819D02*
X64826315Y-104044819D01*
X64826315Y-104044819D02*
X64826315Y-103044819D01*
X63445363Y-103949580D02*
X63492982Y-103997200D01*
X63492982Y-103997200D02*
X63635839Y-104044819D01*
X63635839Y-104044819D02*
X63731077Y-104044819D01*
X63731077Y-104044819D02*
X63873934Y-103997200D01*
X63873934Y-103997200D02*
X63969172Y-103901961D01*
X63969172Y-103901961D02*
X64016791Y-103806723D01*
X64016791Y-103806723D02*
X64064410Y-103616247D01*
X64064410Y-103616247D02*
X64064410Y-103473390D01*
X64064410Y-103473390D02*
X64016791Y-103282914D01*
X64016791Y-103282914D02*
X63969172Y-103187676D01*
X63969172Y-103187676D02*
X63873934Y-103092438D01*
X63873934Y-103092438D02*
X63731077Y-103044819D01*
X63731077Y-103044819D02*
X63635839Y-103044819D01*
X63635839Y-103044819D02*
X63492982Y-103092438D01*
X63492982Y-103092438D02*
X63445363Y-103140057D01*
X62731077Y-103044819D02*
X62731077Y-103759104D01*
X62731077Y-103759104D02*
X62778696Y-103901961D01*
X62778696Y-103901961D02*
X62873934Y-103997200D01*
X62873934Y-103997200D02*
X63016791Y-104044819D01*
X63016791Y-104044819D02*
X63112029Y-104044819D01*
X61778696Y-104044819D02*
X62254886Y-104044819D01*
X62254886Y-104044819D02*
X62254886Y-103044819D01*
X60873934Y-103949580D02*
X60921553Y-103997200D01*
X60921553Y-103997200D02*
X61064410Y-104044819D01*
X61064410Y-104044819D02*
X61159648Y-104044819D01*
X61159648Y-104044819D02*
X61302505Y-103997200D01*
X61302505Y-103997200D02*
X61397743Y-103901961D01*
X61397743Y-103901961D02*
X61445362Y-103806723D01*
X61445362Y-103806723D02*
X61492981Y-103616247D01*
X61492981Y-103616247D02*
X61492981Y-103473390D01*
X61492981Y-103473390D02*
X61445362Y-103282914D01*
X61445362Y-103282914D02*
X61397743Y-103187676D01*
X61397743Y-103187676D02*
X61302505Y-103092438D01*
X61302505Y-103092438D02*
X61159648Y-103044819D01*
X61159648Y-103044819D02*
X61064410Y-103044819D01*
X61064410Y-103044819D02*
X60921553Y-103092438D01*
X60921553Y-103092438D02*
X60873934Y-103140057D01*
X60159648Y-103044819D02*
X60159648Y-103759104D01*
X60159648Y-103759104D02*
X60207267Y-103901961D01*
X60207267Y-103901961D02*
X60302505Y-103997200D01*
X60302505Y-103997200D02*
X60445362Y-104044819D01*
X60445362Y-104044819D02*
X60540600Y-104044819D01*
X59207267Y-104044819D02*
X59683457Y-104044819D01*
X59683457Y-104044819D02*
X59683457Y-103044819D01*
X58302505Y-103949580D02*
X58350124Y-103997200D01*
X58350124Y-103997200D02*
X58492981Y-104044819D01*
X58492981Y-104044819D02*
X58588219Y-104044819D01*
X58588219Y-104044819D02*
X58731076Y-103997200D01*
X58731076Y-103997200D02*
X58826314Y-103901961D01*
X58826314Y-103901961D02*
X58873933Y-103806723D01*
X58873933Y-103806723D02*
X58921552Y-103616247D01*
X58921552Y-103616247D02*
X58921552Y-103473390D01*
X58921552Y-103473390D02*
X58873933Y-103282914D01*
X58873933Y-103282914D02*
X58826314Y-103187676D01*
X58826314Y-103187676D02*
X58731076Y-103092438D01*
X58731076Y-103092438D02*
X58588219Y-103044819D01*
X58588219Y-103044819D02*
X58492981Y-103044819D01*
X58492981Y-103044819D02*
X58350124Y-103092438D01*
X58350124Y-103092438D02*
X58302505Y-103140057D01*
X57588219Y-103044819D02*
X57588219Y-103759104D01*
X57588219Y-103759104D02*
X57635838Y-103901961D01*
X57635838Y-103901961D02*
X57731076Y-103997200D01*
X57731076Y-103997200D02*
X57873933Y-104044819D01*
X57873933Y-104044819D02*
X57969171Y-104044819D01*
X56635838Y-104044819D02*
X57112028Y-104044819D01*
X57112028Y-104044819D02*
X57112028Y-103044819D01*
X55731076Y-103949580D02*
X55778695Y-103997200D01*
X55778695Y-103997200D02*
X55921552Y-104044819D01*
X55921552Y-104044819D02*
X56016790Y-104044819D01*
X56016790Y-104044819D02*
X56159647Y-103997200D01*
X56159647Y-103997200D02*
X56254885Y-103901961D01*
X56254885Y-103901961D02*
X56302504Y-103806723D01*
X56302504Y-103806723D02*
X56350123Y-103616247D01*
X56350123Y-103616247D02*
X56350123Y-103473390D01*
X56350123Y-103473390D02*
X56302504Y-103282914D01*
X56302504Y-103282914D02*
X56254885Y-103187676D01*
X56254885Y-103187676D02*
X56159647Y-103092438D01*
X56159647Y-103092438D02*
X56016790Y-103044819D01*
X56016790Y-103044819D02*
X55921552Y-103044819D01*
X55921552Y-103044819D02*
X55778695Y-103092438D01*
X55778695Y-103092438D02*
X55731076Y-103140057D01*
X58129475Y-44127295D02*
X58129475Y-43327295D01*
X58129475Y-43327295D02*
X57938999Y-43327295D01*
X57938999Y-43327295D02*
X57824713Y-43365390D01*
X57824713Y-43365390D02*
X57748523Y-43441580D01*
X57748523Y-43441580D02*
X57710428Y-43517771D01*
X57710428Y-43517771D02*
X57672332Y-43670152D01*
X57672332Y-43670152D02*
X57672332Y-43784438D01*
X57672332Y-43784438D02*
X57710428Y-43936819D01*
X57710428Y-43936819D02*
X57748523Y-44013009D01*
X57748523Y-44013009D02*
X57824713Y-44089200D01*
X57824713Y-44089200D02*
X57938999Y-44127295D01*
X57938999Y-44127295D02*
X58129475Y-44127295D01*
X57177094Y-43327295D02*
X57100904Y-43327295D01*
X57100904Y-43327295D02*
X57024713Y-43365390D01*
X57024713Y-43365390D02*
X56986618Y-43403485D01*
X56986618Y-43403485D02*
X56948523Y-43479676D01*
X56948523Y-43479676D02*
X56910428Y-43632057D01*
X56910428Y-43632057D02*
X56910428Y-43822533D01*
X56910428Y-43822533D02*
X56948523Y-43974914D01*
X56948523Y-43974914D02*
X56986618Y-44051104D01*
X56986618Y-44051104D02*
X57024713Y-44089200D01*
X57024713Y-44089200D02*
X57100904Y-44127295D01*
X57100904Y-44127295D02*
X57177094Y-44127295D01*
X57177094Y-44127295D02*
X57253285Y-44089200D01*
X57253285Y-44089200D02*
X57291380Y-44051104D01*
X57291380Y-44051104D02*
X57329475Y-43974914D01*
X57329475Y-43974914D02*
X57367571Y-43822533D01*
X57367571Y-43822533D02*
X57367571Y-43632057D01*
X57367571Y-43632057D02*
X57329475Y-43479676D01*
X57329475Y-43479676D02*
X57291380Y-43403485D01*
X57291380Y-43403485D02*
X57253285Y-43365390D01*
X57253285Y-43365390D02*
X57177094Y-43327295D01*
X68784809Y-53868247D02*
X68670523Y-53906342D01*
X68670523Y-53906342D02*
X68632428Y-53944438D01*
X68632428Y-53944438D02*
X68594332Y-54020628D01*
X68594332Y-54020628D02*
X68594332Y-54134914D01*
X68594332Y-54134914D02*
X68632428Y-54211104D01*
X68632428Y-54211104D02*
X68670523Y-54249200D01*
X68670523Y-54249200D02*
X68746713Y-54287295D01*
X68746713Y-54287295D02*
X69051475Y-54287295D01*
X69051475Y-54287295D02*
X69051475Y-53487295D01*
X69051475Y-53487295D02*
X68784809Y-53487295D01*
X68784809Y-53487295D02*
X68708618Y-53525390D01*
X68708618Y-53525390D02*
X68670523Y-53563485D01*
X68670523Y-53563485D02*
X68632428Y-53639676D01*
X68632428Y-53639676D02*
X68632428Y-53715866D01*
X68632428Y-53715866D02*
X68670523Y-53792057D01*
X68670523Y-53792057D02*
X68708618Y-53830152D01*
X68708618Y-53830152D02*
X68784809Y-53868247D01*
X68784809Y-53868247D02*
X69051475Y-53868247D01*
X68327666Y-53487295D02*
X67832428Y-53487295D01*
X67832428Y-53487295D02*
X68099094Y-53792057D01*
X68099094Y-53792057D02*
X67984809Y-53792057D01*
X67984809Y-53792057D02*
X67908618Y-53830152D01*
X67908618Y-53830152D02*
X67870523Y-53868247D01*
X67870523Y-53868247D02*
X67832428Y-53944438D01*
X67832428Y-53944438D02*
X67832428Y-54134914D01*
X67832428Y-54134914D02*
X67870523Y-54211104D01*
X67870523Y-54211104D02*
X67908618Y-54249200D01*
X67908618Y-54249200D02*
X67984809Y-54287295D01*
X67984809Y-54287295D02*
X68213380Y-54287295D01*
X68213380Y-54287295D02*
X68289571Y-54249200D01*
X68289571Y-54249200D02*
X68327666Y-54211104D01*
X68573333Y-36449200D02*
X68459047Y-36487295D01*
X68459047Y-36487295D02*
X68268571Y-36487295D01*
X68268571Y-36487295D02*
X68192380Y-36449200D01*
X68192380Y-36449200D02*
X68154285Y-36411104D01*
X68154285Y-36411104D02*
X68116190Y-36334914D01*
X68116190Y-36334914D02*
X68116190Y-36258723D01*
X68116190Y-36258723D02*
X68154285Y-36182533D01*
X68154285Y-36182533D02*
X68192380Y-36144438D01*
X68192380Y-36144438D02*
X68268571Y-36106342D01*
X68268571Y-36106342D02*
X68420952Y-36068247D01*
X68420952Y-36068247D02*
X68497142Y-36030152D01*
X68497142Y-36030152D02*
X68535237Y-35992057D01*
X68535237Y-35992057D02*
X68573333Y-35915866D01*
X68573333Y-35915866D02*
X68573333Y-35839676D01*
X68573333Y-35839676D02*
X68535237Y-35763485D01*
X68535237Y-35763485D02*
X68497142Y-35725390D01*
X68497142Y-35725390D02*
X68420952Y-35687295D01*
X68420952Y-35687295D02*
X68230475Y-35687295D01*
X68230475Y-35687295D02*
X68116190Y-35725390D01*
X67887618Y-35687295D02*
X67430475Y-35687295D01*
X67659047Y-36487295D02*
X67659047Y-35687295D01*
X58091380Y-53868247D02*
X57824714Y-53868247D01*
X57710428Y-54287295D02*
X58091380Y-54287295D01*
X58091380Y-54287295D02*
X58091380Y-53487295D01*
X58091380Y-53487295D02*
X57710428Y-53487295D01*
X57024713Y-53487295D02*
X57177094Y-53487295D01*
X57177094Y-53487295D02*
X57253285Y-53525390D01*
X57253285Y-53525390D02*
X57291380Y-53563485D01*
X57291380Y-53563485D02*
X57367570Y-53677771D01*
X57367570Y-53677771D02*
X57405666Y-53830152D01*
X57405666Y-53830152D02*
X57405666Y-54134914D01*
X57405666Y-54134914D02*
X57367570Y-54211104D01*
X57367570Y-54211104D02*
X57329475Y-54249200D01*
X57329475Y-54249200D02*
X57253285Y-54287295D01*
X57253285Y-54287295D02*
X57100904Y-54287295D01*
X57100904Y-54287295D02*
X57024713Y-54249200D01*
X57024713Y-54249200D02*
X56986618Y-54211104D01*
X56986618Y-54211104D02*
X56948523Y-54134914D01*
X56948523Y-54134914D02*
X56948523Y-53944438D01*
X56948523Y-53944438D02*
X56986618Y-53868247D01*
X56986618Y-53868247D02*
X57024713Y-53830152D01*
X57024713Y-53830152D02*
X57100904Y-53792057D01*
X57100904Y-53792057D02*
X57253285Y-53792057D01*
X57253285Y-53792057D02*
X57329475Y-53830152D01*
X57329475Y-53830152D02*
X57367570Y-53868247D01*
X57367570Y-53868247D02*
X57405666Y-53944438D01*
X68727666Y-43708247D02*
X68994332Y-43708247D01*
X68994332Y-44127295D02*
X68994332Y-43327295D01*
X68994332Y-43327295D02*
X68613380Y-43327295D01*
X67927666Y-43327295D02*
X68308618Y-43327295D01*
X68308618Y-43327295D02*
X68346714Y-43708247D01*
X68346714Y-43708247D02*
X68308618Y-43670152D01*
X68308618Y-43670152D02*
X68232428Y-43632057D01*
X68232428Y-43632057D02*
X68041952Y-43632057D01*
X68041952Y-43632057D02*
X67965761Y-43670152D01*
X67965761Y-43670152D02*
X67927666Y-43708247D01*
X67927666Y-43708247D02*
X67889571Y-43784438D01*
X67889571Y-43784438D02*
X67889571Y-43974914D01*
X67889571Y-43974914D02*
X67927666Y-44051104D01*
X67927666Y-44051104D02*
X67965761Y-44089200D01*
X67965761Y-44089200D02*
X68041952Y-44127295D01*
X68041952Y-44127295D02*
X68232428Y-44127295D01*
X68232428Y-44127295D02*
X68308618Y-44089200D01*
X68308618Y-44089200D02*
X68346714Y-44051104D01*
X69013380Y-31427295D02*
X69280047Y-31046342D01*
X69470523Y-31427295D02*
X69470523Y-30627295D01*
X69470523Y-30627295D02*
X69165761Y-30627295D01*
X69165761Y-30627295D02*
X69089571Y-30665390D01*
X69089571Y-30665390D02*
X69051476Y-30703485D01*
X69051476Y-30703485D02*
X69013380Y-30779676D01*
X69013380Y-30779676D02*
X69013380Y-30893961D01*
X69013380Y-30893961D02*
X69051476Y-30970152D01*
X69051476Y-30970152D02*
X69089571Y-31008247D01*
X69089571Y-31008247D02*
X69165761Y-31046342D01*
X69165761Y-31046342D02*
X69470523Y-31046342D01*
X68708619Y-31198723D02*
X68327666Y-31198723D01*
X68784809Y-31427295D02*
X68518142Y-30627295D01*
X68518142Y-30627295D02*
X68251476Y-31427295D01*
X68061000Y-30627295D02*
X67870524Y-31427295D01*
X67870524Y-31427295D02*
X67718143Y-30855866D01*
X67718143Y-30855866D02*
X67565762Y-31427295D01*
X67565762Y-31427295D02*
X67375286Y-30627295D01*
X68727666Y-46248247D02*
X68994332Y-46248247D01*
X68994332Y-46667295D02*
X68994332Y-45867295D01*
X68994332Y-45867295D02*
X68613380Y-45867295D01*
X67965761Y-45867295D02*
X68118142Y-45867295D01*
X68118142Y-45867295D02*
X68194333Y-45905390D01*
X68194333Y-45905390D02*
X68232428Y-45943485D01*
X68232428Y-45943485D02*
X68308618Y-46057771D01*
X68308618Y-46057771D02*
X68346714Y-46210152D01*
X68346714Y-46210152D02*
X68346714Y-46514914D01*
X68346714Y-46514914D02*
X68308618Y-46591104D01*
X68308618Y-46591104D02*
X68270523Y-46629200D01*
X68270523Y-46629200D02*
X68194333Y-46667295D01*
X68194333Y-46667295D02*
X68041952Y-46667295D01*
X68041952Y-46667295D02*
X67965761Y-46629200D01*
X67965761Y-46629200D02*
X67927666Y-46591104D01*
X67927666Y-46591104D02*
X67889571Y-46514914D01*
X67889571Y-46514914D02*
X67889571Y-46324438D01*
X67889571Y-46324438D02*
X67927666Y-46248247D01*
X67927666Y-46248247D02*
X67965761Y-46210152D01*
X67965761Y-46210152D02*
X68041952Y-46172057D01*
X68041952Y-46172057D02*
X68194333Y-46172057D01*
X68194333Y-46172057D02*
X68270523Y-46210152D01*
X68270523Y-46210152D02*
X68308618Y-46248247D01*
X68308618Y-46248247D02*
X68346714Y-46324438D01*
X68727666Y-48788247D02*
X68994332Y-48788247D01*
X68994332Y-49207295D02*
X68994332Y-48407295D01*
X68994332Y-48407295D02*
X68613380Y-48407295D01*
X68384809Y-48407295D02*
X67851475Y-48407295D01*
X67851475Y-48407295D02*
X68194333Y-49207295D01*
X68727666Y-41168247D02*
X68994332Y-41168247D01*
X68994332Y-41587295D02*
X68994332Y-40787295D01*
X68994332Y-40787295D02*
X68613380Y-40787295D01*
X67965761Y-41053961D02*
X67965761Y-41587295D01*
X68156237Y-40749200D02*
X68346714Y-41320628D01*
X68346714Y-41320628D02*
X67851475Y-41320628D01*
X69070523Y-33205390D02*
X69146713Y-33167295D01*
X69146713Y-33167295D02*
X69260999Y-33167295D01*
X69260999Y-33167295D02*
X69375285Y-33205390D01*
X69375285Y-33205390D02*
X69451475Y-33281580D01*
X69451475Y-33281580D02*
X69489570Y-33357771D01*
X69489570Y-33357771D02*
X69527666Y-33510152D01*
X69527666Y-33510152D02*
X69527666Y-33624438D01*
X69527666Y-33624438D02*
X69489570Y-33776819D01*
X69489570Y-33776819D02*
X69451475Y-33853009D01*
X69451475Y-33853009D02*
X69375285Y-33929200D01*
X69375285Y-33929200D02*
X69260999Y-33967295D01*
X69260999Y-33967295D02*
X69184808Y-33967295D01*
X69184808Y-33967295D02*
X69070523Y-33929200D01*
X69070523Y-33929200D02*
X69032427Y-33891104D01*
X69032427Y-33891104D02*
X69032427Y-33624438D01*
X69032427Y-33624438D02*
X69184808Y-33624438D01*
X68689570Y-33967295D02*
X68689570Y-33167295D01*
X68689570Y-33167295D02*
X68232427Y-33967295D01*
X68232427Y-33967295D02*
X68232427Y-33167295D01*
X67851475Y-33967295D02*
X67851475Y-33167295D01*
X67851475Y-33167295D02*
X67660999Y-33167295D01*
X67660999Y-33167295D02*
X67546713Y-33205390D01*
X67546713Y-33205390D02*
X67470523Y-33281580D01*
X67470523Y-33281580D02*
X67432428Y-33357771D01*
X67432428Y-33357771D02*
X67394332Y-33510152D01*
X67394332Y-33510152D02*
X67394332Y-33624438D01*
X67394332Y-33624438D02*
X67432428Y-33776819D01*
X67432428Y-33776819D02*
X67470523Y-33853009D01*
X67470523Y-33853009D02*
X67546713Y-33929200D01*
X67546713Y-33929200D02*
X67660999Y-33967295D01*
X67660999Y-33967295D02*
X67851475Y-33967295D01*
X57672332Y-49131104D02*
X57710428Y-49169200D01*
X57710428Y-49169200D02*
X57824713Y-49207295D01*
X57824713Y-49207295D02*
X57900904Y-49207295D01*
X57900904Y-49207295D02*
X58015190Y-49169200D01*
X58015190Y-49169200D02*
X58091380Y-49093009D01*
X58091380Y-49093009D02*
X58129475Y-49016819D01*
X58129475Y-49016819D02*
X58167571Y-48864438D01*
X58167571Y-48864438D02*
X58167571Y-48750152D01*
X58167571Y-48750152D02*
X58129475Y-48597771D01*
X58129475Y-48597771D02*
X58091380Y-48521580D01*
X58091380Y-48521580D02*
X58015190Y-48445390D01*
X58015190Y-48445390D02*
X57900904Y-48407295D01*
X57900904Y-48407295D02*
X57824713Y-48407295D01*
X57824713Y-48407295D02*
X57710428Y-48445390D01*
X57710428Y-48445390D02*
X57672332Y-48483485D01*
X56986618Y-48407295D02*
X57138999Y-48407295D01*
X57138999Y-48407295D02*
X57215190Y-48445390D01*
X57215190Y-48445390D02*
X57253285Y-48483485D01*
X57253285Y-48483485D02*
X57329475Y-48597771D01*
X57329475Y-48597771D02*
X57367571Y-48750152D01*
X57367571Y-48750152D02*
X57367571Y-49054914D01*
X57367571Y-49054914D02*
X57329475Y-49131104D01*
X57329475Y-49131104D02*
X57291380Y-49169200D01*
X57291380Y-49169200D02*
X57215190Y-49207295D01*
X57215190Y-49207295D02*
X57062809Y-49207295D01*
X57062809Y-49207295D02*
X56986618Y-49169200D01*
X56986618Y-49169200D02*
X56948523Y-49131104D01*
X56948523Y-49131104D02*
X56910428Y-49054914D01*
X56910428Y-49054914D02*
X56910428Y-48864438D01*
X56910428Y-48864438D02*
X56948523Y-48788247D01*
X56948523Y-48788247D02*
X56986618Y-48750152D01*
X56986618Y-48750152D02*
X57062809Y-48712057D01*
X57062809Y-48712057D02*
X57215190Y-48712057D01*
X57215190Y-48712057D02*
X57291380Y-48750152D01*
X57291380Y-48750152D02*
X57329475Y-48788247D01*
X57329475Y-48788247D02*
X57367571Y-48864438D01*
X58129475Y-41587295D02*
X58129475Y-40787295D01*
X58129475Y-40787295D02*
X57938999Y-40787295D01*
X57938999Y-40787295D02*
X57824713Y-40825390D01*
X57824713Y-40825390D02*
X57748523Y-40901580D01*
X57748523Y-40901580D02*
X57710428Y-40977771D01*
X57710428Y-40977771D02*
X57672332Y-41130152D01*
X57672332Y-41130152D02*
X57672332Y-41244438D01*
X57672332Y-41244438D02*
X57710428Y-41396819D01*
X57710428Y-41396819D02*
X57748523Y-41473009D01*
X57748523Y-41473009D02*
X57824713Y-41549200D01*
X57824713Y-41549200D02*
X57938999Y-41587295D01*
X57938999Y-41587295D02*
X58129475Y-41587295D01*
X56910428Y-41587295D02*
X57367571Y-41587295D01*
X57138999Y-41587295D02*
X57138999Y-40787295D01*
X57138999Y-40787295D02*
X57215190Y-40901580D01*
X57215190Y-40901580D02*
X57291380Y-40977771D01*
X57291380Y-40977771D02*
X57367571Y-41015866D01*
X68784809Y-58948247D02*
X68670523Y-58986342D01*
X68670523Y-58986342D02*
X68632428Y-59024438D01*
X68632428Y-59024438D02*
X68594332Y-59100628D01*
X68594332Y-59100628D02*
X68594332Y-59214914D01*
X68594332Y-59214914D02*
X68632428Y-59291104D01*
X68632428Y-59291104D02*
X68670523Y-59329200D01*
X68670523Y-59329200D02*
X68746713Y-59367295D01*
X68746713Y-59367295D02*
X69051475Y-59367295D01*
X69051475Y-59367295D02*
X69051475Y-58567295D01*
X69051475Y-58567295D02*
X68784809Y-58567295D01*
X68784809Y-58567295D02*
X68708618Y-58605390D01*
X68708618Y-58605390D02*
X68670523Y-58643485D01*
X68670523Y-58643485D02*
X68632428Y-58719676D01*
X68632428Y-58719676D02*
X68632428Y-58795866D01*
X68632428Y-58795866D02*
X68670523Y-58872057D01*
X68670523Y-58872057D02*
X68708618Y-58910152D01*
X68708618Y-58910152D02*
X68784809Y-58948247D01*
X68784809Y-58948247D02*
X69051475Y-58948247D01*
X67908618Y-58567295D02*
X68060999Y-58567295D01*
X68060999Y-58567295D02*
X68137190Y-58605390D01*
X68137190Y-58605390D02*
X68175285Y-58643485D01*
X68175285Y-58643485D02*
X68251475Y-58757771D01*
X68251475Y-58757771D02*
X68289571Y-58910152D01*
X68289571Y-58910152D02*
X68289571Y-59214914D01*
X68289571Y-59214914D02*
X68251475Y-59291104D01*
X68251475Y-59291104D02*
X68213380Y-59329200D01*
X68213380Y-59329200D02*
X68137190Y-59367295D01*
X68137190Y-59367295D02*
X67984809Y-59367295D01*
X67984809Y-59367295D02*
X67908618Y-59329200D01*
X67908618Y-59329200D02*
X67870523Y-59291104D01*
X67870523Y-59291104D02*
X67832428Y-59214914D01*
X67832428Y-59214914D02*
X67832428Y-59024438D01*
X67832428Y-59024438D02*
X67870523Y-58948247D01*
X67870523Y-58948247D02*
X67908618Y-58910152D01*
X67908618Y-58910152D02*
X67984809Y-58872057D01*
X67984809Y-58872057D02*
X68137190Y-58872057D01*
X68137190Y-58872057D02*
X68213380Y-58910152D01*
X68213380Y-58910152D02*
X68251475Y-58948247D01*
X68251475Y-58948247D02*
X68289571Y-59024438D01*
X61618604Y-30627295D02*
X61161461Y-30627295D01*
X61390033Y-31427295D02*
X61390033Y-30627295D01*
X60970985Y-30627295D02*
X60437651Y-31427295D01*
X60437651Y-30627295D02*
X60970985Y-31427295D01*
X59980508Y-30627295D02*
X59904318Y-30627295D01*
X59904318Y-30627295D02*
X59828127Y-30665390D01*
X59828127Y-30665390D02*
X59790032Y-30703485D01*
X59790032Y-30703485D02*
X59751937Y-30779676D01*
X59751937Y-30779676D02*
X59713842Y-30932057D01*
X59713842Y-30932057D02*
X59713842Y-31122533D01*
X59713842Y-31122533D02*
X59751937Y-31274914D01*
X59751937Y-31274914D02*
X59790032Y-31351104D01*
X59790032Y-31351104D02*
X59828127Y-31389200D01*
X59828127Y-31389200D02*
X59904318Y-31427295D01*
X59904318Y-31427295D02*
X59980508Y-31427295D01*
X59980508Y-31427295D02*
X60056699Y-31389200D01*
X60056699Y-31389200D02*
X60094794Y-31351104D01*
X60094794Y-31351104D02*
X60132889Y-31274914D01*
X60132889Y-31274914D02*
X60170985Y-31122533D01*
X60170985Y-31122533D02*
X60170985Y-30932057D01*
X60170985Y-30932057D02*
X60132889Y-30779676D01*
X60132889Y-30779676D02*
X60094794Y-30703485D01*
X60094794Y-30703485D02*
X60056699Y-30665390D01*
X60056699Y-30665390D02*
X59980508Y-30627295D01*
X58799556Y-30589200D02*
X59485270Y-31617771D01*
X58532889Y-31427295D02*
X58532889Y-30627295D01*
X58532889Y-30627295D02*
X58342413Y-30627295D01*
X58342413Y-30627295D02*
X58228127Y-30665390D01*
X58228127Y-30665390D02*
X58151937Y-30741580D01*
X58151937Y-30741580D02*
X58113842Y-30817771D01*
X58113842Y-30817771D02*
X58075746Y-30970152D01*
X58075746Y-30970152D02*
X58075746Y-31084438D01*
X58075746Y-31084438D02*
X58113842Y-31236819D01*
X58113842Y-31236819D02*
X58151937Y-31313009D01*
X58151937Y-31313009D02*
X58228127Y-31389200D01*
X58228127Y-31389200D02*
X58342413Y-31427295D01*
X58342413Y-31427295D02*
X58532889Y-31427295D01*
X57809080Y-30627295D02*
X57313842Y-30627295D01*
X57313842Y-30627295D02*
X57580508Y-30932057D01*
X57580508Y-30932057D02*
X57466223Y-30932057D01*
X57466223Y-30932057D02*
X57390032Y-30970152D01*
X57390032Y-30970152D02*
X57351937Y-31008247D01*
X57351937Y-31008247D02*
X57313842Y-31084438D01*
X57313842Y-31084438D02*
X57313842Y-31274914D01*
X57313842Y-31274914D02*
X57351937Y-31351104D01*
X57351937Y-31351104D02*
X57390032Y-31389200D01*
X57390032Y-31389200D02*
X57466223Y-31427295D01*
X57466223Y-31427295D02*
X57694794Y-31427295D01*
X57694794Y-31427295D02*
X57770985Y-31389200D01*
X57770985Y-31389200D02*
X57809080Y-31351104D01*
X58129475Y-46667295D02*
X58129475Y-45867295D01*
X58129475Y-45867295D02*
X57938999Y-45867295D01*
X57938999Y-45867295D02*
X57824713Y-45905390D01*
X57824713Y-45905390D02*
X57748523Y-45981580D01*
X57748523Y-45981580D02*
X57710428Y-46057771D01*
X57710428Y-46057771D02*
X57672332Y-46210152D01*
X57672332Y-46210152D02*
X57672332Y-46324438D01*
X57672332Y-46324438D02*
X57710428Y-46476819D01*
X57710428Y-46476819D02*
X57748523Y-46553009D01*
X57748523Y-46553009D02*
X57824713Y-46629200D01*
X57824713Y-46629200D02*
X57938999Y-46667295D01*
X57938999Y-46667295D02*
X58129475Y-46667295D01*
X56986618Y-46133961D02*
X56986618Y-46667295D01*
X57177094Y-45829200D02*
X57367571Y-46400628D01*
X57367571Y-46400628D02*
X56872332Y-46400628D01*
X58129475Y-33967295D02*
X58129475Y-33167295D01*
X58129475Y-33167295D02*
X57938999Y-33167295D01*
X57938999Y-33167295D02*
X57824713Y-33205390D01*
X57824713Y-33205390D02*
X57748523Y-33281580D01*
X57748523Y-33281580D02*
X57710428Y-33357771D01*
X57710428Y-33357771D02*
X57672332Y-33510152D01*
X57672332Y-33510152D02*
X57672332Y-33624438D01*
X57672332Y-33624438D02*
X57710428Y-33776819D01*
X57710428Y-33776819D02*
X57748523Y-33853009D01*
X57748523Y-33853009D02*
X57824713Y-33929200D01*
X57824713Y-33929200D02*
X57938999Y-33967295D01*
X57938999Y-33967295D02*
X58129475Y-33967295D01*
X57367571Y-33243485D02*
X57329475Y-33205390D01*
X57329475Y-33205390D02*
X57253285Y-33167295D01*
X57253285Y-33167295D02*
X57062809Y-33167295D01*
X57062809Y-33167295D02*
X56986618Y-33205390D01*
X56986618Y-33205390D02*
X56948523Y-33243485D01*
X56948523Y-33243485D02*
X56910428Y-33319676D01*
X56910428Y-33319676D02*
X56910428Y-33395866D01*
X56910428Y-33395866D02*
X56948523Y-33510152D01*
X56948523Y-33510152D02*
X57405666Y-33967295D01*
X57405666Y-33967295D02*
X56910428Y-33967295D01*
X69527666Y-38247295D02*
X69260999Y-39047295D01*
X69260999Y-39047295D02*
X68994333Y-38247295D01*
X68270523Y-38971104D02*
X68308619Y-39009200D01*
X68308619Y-39009200D02*
X68422904Y-39047295D01*
X68422904Y-39047295D02*
X68499095Y-39047295D01*
X68499095Y-39047295D02*
X68613381Y-39009200D01*
X68613381Y-39009200D02*
X68689571Y-38933009D01*
X68689571Y-38933009D02*
X68727666Y-38856819D01*
X68727666Y-38856819D02*
X68765762Y-38704438D01*
X68765762Y-38704438D02*
X68765762Y-38590152D01*
X68765762Y-38590152D02*
X68727666Y-38437771D01*
X68727666Y-38437771D02*
X68689571Y-38361580D01*
X68689571Y-38361580D02*
X68613381Y-38285390D01*
X68613381Y-38285390D02*
X68499095Y-38247295D01*
X68499095Y-38247295D02*
X68422904Y-38247295D01*
X68422904Y-38247295D02*
X68308619Y-38285390D01*
X68308619Y-38285390D02*
X68270523Y-38323485D01*
X67470523Y-38971104D02*
X67508619Y-39009200D01*
X67508619Y-39009200D02*
X67622904Y-39047295D01*
X67622904Y-39047295D02*
X67699095Y-39047295D01*
X67699095Y-39047295D02*
X67813381Y-39009200D01*
X67813381Y-39009200D02*
X67889571Y-38933009D01*
X67889571Y-38933009D02*
X67927666Y-38856819D01*
X67927666Y-38856819D02*
X67965762Y-38704438D01*
X67965762Y-38704438D02*
X67965762Y-38590152D01*
X67965762Y-38590152D02*
X67927666Y-38437771D01*
X67927666Y-38437771D02*
X67889571Y-38361580D01*
X67889571Y-38361580D02*
X67813381Y-38285390D01*
X67813381Y-38285390D02*
X67699095Y-38247295D01*
X67699095Y-38247295D02*
X67622904Y-38247295D01*
X67622904Y-38247295D02*
X67508619Y-38285390D01*
X67508619Y-38285390D02*
X67470523Y-38323485D01*
X57862809Y-56408247D02*
X57748523Y-56446342D01*
X57748523Y-56446342D02*
X57710428Y-56484438D01*
X57710428Y-56484438D02*
X57672332Y-56560628D01*
X57672332Y-56560628D02*
X57672332Y-56674914D01*
X57672332Y-56674914D02*
X57710428Y-56751104D01*
X57710428Y-56751104D02*
X57748523Y-56789200D01*
X57748523Y-56789200D02*
X57824713Y-56827295D01*
X57824713Y-56827295D02*
X58129475Y-56827295D01*
X58129475Y-56827295D02*
X58129475Y-56027295D01*
X58129475Y-56027295D02*
X57862809Y-56027295D01*
X57862809Y-56027295D02*
X57786618Y-56065390D01*
X57786618Y-56065390D02*
X57748523Y-56103485D01*
X57748523Y-56103485D02*
X57710428Y-56179676D01*
X57710428Y-56179676D02*
X57710428Y-56255866D01*
X57710428Y-56255866D02*
X57748523Y-56332057D01*
X57748523Y-56332057D02*
X57786618Y-56370152D01*
X57786618Y-56370152D02*
X57862809Y-56408247D01*
X57862809Y-56408247D02*
X58129475Y-56408247D01*
X56986618Y-56293961D02*
X56986618Y-56827295D01*
X57177094Y-55989200D02*
X57367571Y-56560628D01*
X57367571Y-56560628D02*
X56872332Y-56560628D01*
X68784809Y-56408247D02*
X68670523Y-56446342D01*
X68670523Y-56446342D02*
X68632428Y-56484438D01*
X68632428Y-56484438D02*
X68594332Y-56560628D01*
X68594332Y-56560628D02*
X68594332Y-56674914D01*
X68594332Y-56674914D02*
X68632428Y-56751104D01*
X68632428Y-56751104D02*
X68670523Y-56789200D01*
X68670523Y-56789200D02*
X68746713Y-56827295D01*
X68746713Y-56827295D02*
X69051475Y-56827295D01*
X69051475Y-56827295D02*
X69051475Y-56027295D01*
X69051475Y-56027295D02*
X68784809Y-56027295D01*
X68784809Y-56027295D02*
X68708618Y-56065390D01*
X68708618Y-56065390D02*
X68670523Y-56103485D01*
X68670523Y-56103485D02*
X68632428Y-56179676D01*
X68632428Y-56179676D02*
X68632428Y-56255866D01*
X68632428Y-56255866D02*
X68670523Y-56332057D01*
X68670523Y-56332057D02*
X68708618Y-56370152D01*
X68708618Y-56370152D02*
X68784809Y-56408247D01*
X68784809Y-56408247D02*
X69051475Y-56408247D01*
X68289571Y-56103485D02*
X68251475Y-56065390D01*
X68251475Y-56065390D02*
X68175285Y-56027295D01*
X68175285Y-56027295D02*
X67984809Y-56027295D01*
X67984809Y-56027295D02*
X67908618Y-56065390D01*
X67908618Y-56065390D02*
X67870523Y-56103485D01*
X67870523Y-56103485D02*
X67832428Y-56179676D01*
X67832428Y-56179676D02*
X67832428Y-56255866D01*
X67832428Y-56255866D02*
X67870523Y-56370152D01*
X67870523Y-56370152D02*
X68327666Y-56827295D01*
X68327666Y-56827295D02*
X67832428Y-56827295D01*
X68784809Y-51328247D02*
X68670523Y-51366342D01*
X68670523Y-51366342D02*
X68632428Y-51404438D01*
X68632428Y-51404438D02*
X68594332Y-51480628D01*
X68594332Y-51480628D02*
X68594332Y-51594914D01*
X68594332Y-51594914D02*
X68632428Y-51671104D01*
X68632428Y-51671104D02*
X68670523Y-51709200D01*
X68670523Y-51709200D02*
X68746713Y-51747295D01*
X68746713Y-51747295D02*
X69051475Y-51747295D01*
X69051475Y-51747295D02*
X69051475Y-50947295D01*
X69051475Y-50947295D02*
X68784809Y-50947295D01*
X68784809Y-50947295D02*
X68708618Y-50985390D01*
X68708618Y-50985390D02*
X68670523Y-51023485D01*
X68670523Y-51023485D02*
X68632428Y-51099676D01*
X68632428Y-51099676D02*
X68632428Y-51175866D01*
X68632428Y-51175866D02*
X68670523Y-51252057D01*
X68670523Y-51252057D02*
X68708618Y-51290152D01*
X68708618Y-51290152D02*
X68784809Y-51328247D01*
X68784809Y-51328247D02*
X69051475Y-51328247D01*
X67832428Y-51747295D02*
X68289571Y-51747295D01*
X68060999Y-51747295D02*
X68060999Y-50947295D01*
X68060999Y-50947295D02*
X68137190Y-51061580D01*
X68137190Y-51061580D02*
X68213380Y-51137771D01*
X68213380Y-51137771D02*
X68289571Y-51175866D01*
X58148523Y-35745390D02*
X58224713Y-35707295D01*
X58224713Y-35707295D02*
X58338999Y-35707295D01*
X58338999Y-35707295D02*
X58453285Y-35745390D01*
X58453285Y-35745390D02*
X58529475Y-35821580D01*
X58529475Y-35821580D02*
X58567570Y-35897771D01*
X58567570Y-35897771D02*
X58605666Y-36050152D01*
X58605666Y-36050152D02*
X58605666Y-36164438D01*
X58605666Y-36164438D02*
X58567570Y-36316819D01*
X58567570Y-36316819D02*
X58529475Y-36393009D01*
X58529475Y-36393009D02*
X58453285Y-36469200D01*
X58453285Y-36469200D02*
X58338999Y-36507295D01*
X58338999Y-36507295D02*
X58262808Y-36507295D01*
X58262808Y-36507295D02*
X58148523Y-36469200D01*
X58148523Y-36469200D02*
X58110427Y-36431104D01*
X58110427Y-36431104D02*
X58110427Y-36164438D01*
X58110427Y-36164438D02*
X58262808Y-36164438D01*
X57767570Y-36507295D02*
X57767570Y-35707295D01*
X57767570Y-35707295D02*
X57310427Y-36507295D01*
X57310427Y-36507295D02*
X57310427Y-35707295D01*
X56929475Y-36507295D02*
X56929475Y-35707295D01*
X56929475Y-35707295D02*
X56738999Y-35707295D01*
X56738999Y-35707295D02*
X56624713Y-35745390D01*
X56624713Y-35745390D02*
X56548523Y-35821580D01*
X56548523Y-35821580D02*
X56510428Y-35897771D01*
X56510428Y-35897771D02*
X56472332Y-36050152D01*
X56472332Y-36050152D02*
X56472332Y-36164438D01*
X56472332Y-36164438D02*
X56510428Y-36316819D01*
X56510428Y-36316819D02*
X56548523Y-36393009D01*
X56548523Y-36393009D02*
X56624713Y-36469200D01*
X56624713Y-36469200D02*
X56738999Y-36507295D01*
X56738999Y-36507295D02*
X56929475Y-36507295D01*
X57862809Y-58948247D02*
X57748523Y-58986342D01*
X57748523Y-58986342D02*
X57710428Y-59024438D01*
X57710428Y-59024438D02*
X57672332Y-59100628D01*
X57672332Y-59100628D02*
X57672332Y-59214914D01*
X57672332Y-59214914D02*
X57710428Y-59291104D01*
X57710428Y-59291104D02*
X57748523Y-59329200D01*
X57748523Y-59329200D02*
X57824713Y-59367295D01*
X57824713Y-59367295D02*
X58129475Y-59367295D01*
X58129475Y-59367295D02*
X58129475Y-58567295D01*
X58129475Y-58567295D02*
X57862809Y-58567295D01*
X57862809Y-58567295D02*
X57786618Y-58605390D01*
X57786618Y-58605390D02*
X57748523Y-58643485D01*
X57748523Y-58643485D02*
X57710428Y-58719676D01*
X57710428Y-58719676D02*
X57710428Y-58795866D01*
X57710428Y-58795866D02*
X57748523Y-58872057D01*
X57748523Y-58872057D02*
X57786618Y-58910152D01*
X57786618Y-58910152D02*
X57862809Y-58948247D01*
X57862809Y-58948247D02*
X58129475Y-58948247D01*
X56948523Y-58567295D02*
X57329475Y-58567295D01*
X57329475Y-58567295D02*
X57367571Y-58948247D01*
X57367571Y-58948247D02*
X57329475Y-58910152D01*
X57329475Y-58910152D02*
X57253285Y-58872057D01*
X57253285Y-58872057D02*
X57062809Y-58872057D01*
X57062809Y-58872057D02*
X56986618Y-58910152D01*
X56986618Y-58910152D02*
X56948523Y-58948247D01*
X56948523Y-58948247D02*
X56910428Y-59024438D01*
X56910428Y-59024438D02*
X56910428Y-59214914D01*
X56910428Y-59214914D02*
X56948523Y-59291104D01*
X56948523Y-59291104D02*
X56986618Y-59329200D01*
X56986618Y-59329200D02*
X57062809Y-59367295D01*
X57062809Y-59367295D02*
X57253285Y-59367295D01*
X57253285Y-59367295D02*
X57329475Y-59329200D01*
X57329475Y-59329200D02*
X57367571Y-59291104D01*
X122116667Y-98416033D02*
X122450000Y-98416033D01*
X122450000Y-98416033D02*
X122450000Y-97716033D01*
X121883333Y-98049366D02*
X121650000Y-98049366D01*
X121550000Y-98416033D02*
X121883333Y-98416033D01*
X121883333Y-98416033D02*
X121883333Y-97716033D01*
X121883333Y-97716033D02*
X121550000Y-97716033D01*
X121250000Y-98416033D02*
X121250000Y-97716033D01*
X121250000Y-97716033D02*
X121083333Y-97716033D01*
X121083333Y-97716033D02*
X120983333Y-97749366D01*
X120983333Y-97749366D02*
X120916667Y-97816033D01*
X120916667Y-97816033D02*
X120883333Y-97882700D01*
X120883333Y-97882700D02*
X120850000Y-98016033D01*
X120850000Y-98016033D02*
X120850000Y-98116033D01*
X120850000Y-98116033D02*
X120883333Y-98249366D01*
X120883333Y-98249366D02*
X120916667Y-98316033D01*
X120916667Y-98316033D02*
X120983333Y-98382700D01*
X120983333Y-98382700D02*
X121083333Y-98416033D01*
X121083333Y-98416033D02*
X121250000Y-98416033D01*
X120183333Y-98416033D02*
X120583333Y-98416033D01*
X120383333Y-98416033D02*
X120383333Y-97716033D01*
X120383333Y-97716033D02*
X120450000Y-97816033D01*
X120450000Y-97816033D02*
X120516667Y-97882700D01*
X120516667Y-97882700D02*
X120583333Y-97916033D01*
X119516666Y-98416033D02*
X119916666Y-98416033D01*
X119716666Y-98416033D02*
X119716666Y-97716033D01*
X119716666Y-97716033D02*
X119783333Y-97816033D01*
X119783333Y-97816033D02*
X119850000Y-97882700D01*
X119850000Y-97882700D02*
X119916666Y-97916033D01*
X83783333Y-79566033D02*
X84116666Y-79566033D01*
X84116666Y-79566033D02*
X84116666Y-78866033D01*
X83549999Y-79199366D02*
X83316666Y-79199366D01*
X83216666Y-79566033D02*
X83549999Y-79566033D01*
X83549999Y-79566033D02*
X83549999Y-78866033D01*
X83549999Y-78866033D02*
X83216666Y-78866033D01*
X82916666Y-79566033D02*
X82916666Y-78866033D01*
X82916666Y-78866033D02*
X82749999Y-78866033D01*
X82749999Y-78866033D02*
X82649999Y-78899366D01*
X82649999Y-78899366D02*
X82583333Y-78966033D01*
X82583333Y-78966033D02*
X82549999Y-79032700D01*
X82549999Y-79032700D02*
X82516666Y-79166033D01*
X82516666Y-79166033D02*
X82516666Y-79266033D01*
X82516666Y-79266033D02*
X82549999Y-79399366D01*
X82549999Y-79399366D02*
X82583333Y-79466033D01*
X82583333Y-79466033D02*
X82649999Y-79532700D01*
X82649999Y-79532700D02*
X82749999Y-79566033D01*
X82749999Y-79566033D02*
X82916666Y-79566033D01*
X81883333Y-78866033D02*
X82216666Y-78866033D01*
X82216666Y-78866033D02*
X82249999Y-79199366D01*
X82249999Y-79199366D02*
X82216666Y-79166033D01*
X82216666Y-79166033D02*
X82149999Y-79132700D01*
X82149999Y-79132700D02*
X81983333Y-79132700D01*
X81983333Y-79132700D02*
X81916666Y-79166033D01*
X81916666Y-79166033D02*
X81883333Y-79199366D01*
X81883333Y-79199366D02*
X81849999Y-79266033D01*
X81849999Y-79266033D02*
X81849999Y-79432700D01*
X81849999Y-79432700D02*
X81883333Y-79499366D01*
X81883333Y-79499366D02*
X81916666Y-79532700D01*
X81916666Y-79532700D02*
X81983333Y-79566033D01*
X81983333Y-79566033D02*
X82149999Y-79566033D01*
X82149999Y-79566033D02*
X82216666Y-79532700D01*
X82216666Y-79532700D02*
X82249999Y-79499366D01*
X103116667Y-98416033D02*
X103450000Y-98416033D01*
X103450000Y-98416033D02*
X103450000Y-97716033D01*
X102883333Y-98049366D02*
X102650000Y-98049366D01*
X102550000Y-98416033D02*
X102883333Y-98416033D01*
X102883333Y-98416033D02*
X102883333Y-97716033D01*
X102883333Y-97716033D02*
X102550000Y-97716033D01*
X102250000Y-98416033D02*
X102250000Y-97716033D01*
X102250000Y-97716033D02*
X102083333Y-97716033D01*
X102083333Y-97716033D02*
X101983333Y-97749366D01*
X101983333Y-97749366D02*
X101916667Y-97816033D01*
X101916667Y-97816033D02*
X101883333Y-97882700D01*
X101883333Y-97882700D02*
X101850000Y-98016033D01*
X101850000Y-98016033D02*
X101850000Y-98116033D01*
X101850000Y-98116033D02*
X101883333Y-98249366D01*
X101883333Y-98249366D02*
X101916667Y-98316033D01*
X101916667Y-98316033D02*
X101983333Y-98382700D01*
X101983333Y-98382700D02*
X102083333Y-98416033D01*
X102083333Y-98416033D02*
X102250000Y-98416033D01*
X101183333Y-98416033D02*
X101583333Y-98416033D01*
X101383333Y-98416033D02*
X101383333Y-97716033D01*
X101383333Y-97716033D02*
X101450000Y-97816033D01*
X101450000Y-97816033D02*
X101516667Y-97882700D01*
X101516667Y-97882700D02*
X101583333Y-97916033D01*
X100750000Y-97716033D02*
X100683333Y-97716033D01*
X100683333Y-97716033D02*
X100616666Y-97749366D01*
X100616666Y-97749366D02*
X100583333Y-97782700D01*
X100583333Y-97782700D02*
X100550000Y-97849366D01*
X100550000Y-97849366D02*
X100516666Y-97982700D01*
X100516666Y-97982700D02*
X100516666Y-98149366D01*
X100516666Y-98149366D02*
X100550000Y-98282700D01*
X100550000Y-98282700D02*
X100583333Y-98349366D01*
X100583333Y-98349366D02*
X100616666Y-98382700D01*
X100616666Y-98382700D02*
X100683333Y-98416033D01*
X100683333Y-98416033D02*
X100750000Y-98416033D01*
X100750000Y-98416033D02*
X100816666Y-98382700D01*
X100816666Y-98382700D02*
X100850000Y-98349366D01*
X100850000Y-98349366D02*
X100883333Y-98282700D01*
X100883333Y-98282700D02*
X100916666Y-98149366D01*
X100916666Y-98149366D02*
X100916666Y-97982700D01*
X100916666Y-97982700D02*
X100883333Y-97849366D01*
X100883333Y-97849366D02*
X100850000Y-97782700D01*
X100850000Y-97782700D02*
X100816666Y-97749366D01*
X100816666Y-97749366D02*
X100750000Y-97716033D01*
X66800000Y-98612295D02*
X66800000Y-97812295D01*
X66800000Y-97812295D02*
X66533334Y-98383723D01*
X66533334Y-98383723D02*
X66266667Y-97812295D01*
X66266667Y-97812295D02*
X66266667Y-98612295D01*
X65771429Y-98612295D02*
X65847619Y-98574200D01*
X65847619Y-98574200D02*
X65885714Y-98536104D01*
X65885714Y-98536104D02*
X65923810Y-98459914D01*
X65923810Y-98459914D02*
X65923810Y-98231342D01*
X65923810Y-98231342D02*
X65885714Y-98155152D01*
X65885714Y-98155152D02*
X65847619Y-98117057D01*
X65847619Y-98117057D02*
X65771429Y-98078961D01*
X65771429Y-98078961D02*
X65657143Y-98078961D01*
X65657143Y-98078961D02*
X65580952Y-98117057D01*
X65580952Y-98117057D02*
X65542857Y-98155152D01*
X65542857Y-98155152D02*
X65504762Y-98231342D01*
X65504762Y-98231342D02*
X65504762Y-98459914D01*
X65504762Y-98459914D02*
X65542857Y-98536104D01*
X65542857Y-98536104D02*
X65580952Y-98574200D01*
X65580952Y-98574200D02*
X65657143Y-98612295D01*
X65657143Y-98612295D02*
X65771429Y-98612295D01*
X64819047Y-98612295D02*
X64819047Y-97812295D01*
X64819047Y-98574200D02*
X64895238Y-98612295D01*
X64895238Y-98612295D02*
X65047619Y-98612295D01*
X65047619Y-98612295D02*
X65123809Y-98574200D01*
X65123809Y-98574200D02*
X65161904Y-98536104D01*
X65161904Y-98536104D02*
X65200000Y-98459914D01*
X65200000Y-98459914D02*
X65200000Y-98231342D01*
X65200000Y-98231342D02*
X65161904Y-98155152D01*
X65161904Y-98155152D02*
X65123809Y-98117057D01*
X65123809Y-98117057D02*
X65047619Y-98078961D01*
X65047619Y-98078961D02*
X64895238Y-98078961D01*
X64895238Y-98078961D02*
X64819047Y-98117057D01*
X64133332Y-98574200D02*
X64209523Y-98612295D01*
X64209523Y-98612295D02*
X64361904Y-98612295D01*
X64361904Y-98612295D02*
X64438094Y-98574200D01*
X64438094Y-98574200D02*
X64476190Y-98498009D01*
X64476190Y-98498009D02*
X64476190Y-98193247D01*
X64476190Y-98193247D02*
X64438094Y-98117057D01*
X64438094Y-98117057D02*
X64361904Y-98078961D01*
X64361904Y-98078961D02*
X64209523Y-98078961D01*
X64209523Y-98078961D02*
X64133332Y-98117057D01*
X64133332Y-98117057D02*
X64095237Y-98193247D01*
X64095237Y-98193247D02*
X64095237Y-98269438D01*
X64095237Y-98269438D02*
X64476190Y-98345628D01*
X63371428Y-98612295D02*
X63752380Y-98612295D01*
X63752380Y-98612295D02*
X63752380Y-97812295D01*
X63104761Y-98193247D02*
X62838095Y-98193247D01*
X62723809Y-98612295D02*
X63104761Y-98612295D01*
X63104761Y-98612295D02*
X63104761Y-97812295D01*
X63104761Y-97812295D02*
X62723809Y-97812295D01*
X62380951Y-98612295D02*
X62380951Y-97812295D01*
X62380951Y-97812295D02*
X62190475Y-97812295D01*
X62190475Y-97812295D02*
X62076189Y-97850390D01*
X62076189Y-97850390D02*
X61999999Y-97926580D01*
X61999999Y-97926580D02*
X61961904Y-98002771D01*
X61961904Y-98002771D02*
X61923808Y-98155152D01*
X61923808Y-98155152D02*
X61923808Y-98269438D01*
X61923808Y-98269438D02*
X61961904Y-98421819D01*
X61961904Y-98421819D02*
X61999999Y-98498009D01*
X61999999Y-98498009D02*
X62076189Y-98574200D01*
X62076189Y-98574200D02*
X62190475Y-98612295D01*
X62190475Y-98612295D02*
X62380951Y-98612295D01*
X61161904Y-98612295D02*
X61619047Y-98612295D01*
X61390475Y-98612295D02*
X61390475Y-97812295D01*
X61390475Y-97812295D02*
X61466666Y-97926580D01*
X61466666Y-97926580D02*
X61542856Y-98002771D01*
X61542856Y-98002771D02*
X61619047Y-98040866D01*
X61884819Y-39333333D02*
X61408628Y-39000000D01*
X61884819Y-38761905D02*
X60884819Y-38761905D01*
X60884819Y-38761905D02*
X60884819Y-39142857D01*
X60884819Y-39142857D02*
X60932438Y-39238095D01*
X60932438Y-39238095D02*
X60980057Y-39285714D01*
X60980057Y-39285714D02*
X61075295Y-39333333D01*
X61075295Y-39333333D02*
X61218152Y-39333333D01*
X61218152Y-39333333D02*
X61313390Y-39285714D01*
X61313390Y-39285714D02*
X61361009Y-39238095D01*
X61361009Y-39238095D02*
X61408628Y-39142857D01*
X61408628Y-39142857D02*
X61408628Y-38761905D01*
X61884819Y-40285714D02*
X61884819Y-39714286D01*
X61884819Y-40000000D02*
X60884819Y-40000000D01*
X60884819Y-40000000D02*
X61027676Y-39904762D01*
X61027676Y-39904762D02*
X61122914Y-39809524D01*
X61122914Y-39809524D02*
X61170533Y-39714286D01*
X102783333Y-79416033D02*
X103116666Y-79416033D01*
X103116666Y-79416033D02*
X103116666Y-78716033D01*
X102549999Y-79049366D02*
X102316666Y-79049366D01*
X102216666Y-79416033D02*
X102549999Y-79416033D01*
X102549999Y-79416033D02*
X102549999Y-78716033D01*
X102549999Y-78716033D02*
X102216666Y-78716033D01*
X101916666Y-79416033D02*
X101916666Y-78716033D01*
X101916666Y-78716033D02*
X101749999Y-78716033D01*
X101749999Y-78716033D02*
X101649999Y-78749366D01*
X101649999Y-78749366D02*
X101583333Y-78816033D01*
X101583333Y-78816033D02*
X101549999Y-78882700D01*
X101549999Y-78882700D02*
X101516666Y-79016033D01*
X101516666Y-79016033D02*
X101516666Y-79116033D01*
X101516666Y-79116033D02*
X101549999Y-79249366D01*
X101549999Y-79249366D02*
X101583333Y-79316033D01*
X101583333Y-79316033D02*
X101649999Y-79382700D01*
X101649999Y-79382700D02*
X101749999Y-79416033D01*
X101749999Y-79416033D02*
X101916666Y-79416033D01*
X100916666Y-78716033D02*
X101049999Y-78716033D01*
X101049999Y-78716033D02*
X101116666Y-78749366D01*
X101116666Y-78749366D02*
X101149999Y-78782700D01*
X101149999Y-78782700D02*
X101216666Y-78882700D01*
X101216666Y-78882700D02*
X101249999Y-79016033D01*
X101249999Y-79016033D02*
X101249999Y-79282700D01*
X101249999Y-79282700D02*
X101216666Y-79349366D01*
X101216666Y-79349366D02*
X101183333Y-79382700D01*
X101183333Y-79382700D02*
X101116666Y-79416033D01*
X101116666Y-79416033D02*
X100983333Y-79416033D01*
X100983333Y-79416033D02*
X100916666Y-79382700D01*
X100916666Y-79382700D02*
X100883333Y-79349366D01*
X100883333Y-79349366D02*
X100849999Y-79282700D01*
X100849999Y-79282700D02*
X100849999Y-79116033D01*
X100849999Y-79116033D02*
X100883333Y-79049366D01*
X100883333Y-79049366D02*
X100916666Y-79016033D01*
X100916666Y-79016033D02*
X100983333Y-78982700D01*
X100983333Y-78982700D02*
X101116666Y-78982700D01*
X101116666Y-78982700D02*
X101183333Y-79016033D01*
X101183333Y-79016033D02*
X101216666Y-79049366D01*
X101216666Y-79049366D02*
X101249999Y-79116033D01*
X121783333Y-79416033D02*
X122116666Y-79416033D01*
X122116666Y-79416033D02*
X122116666Y-78716033D01*
X121549999Y-79049366D02*
X121316666Y-79049366D01*
X121216666Y-79416033D02*
X121549999Y-79416033D01*
X121549999Y-79416033D02*
X121549999Y-78716033D01*
X121549999Y-78716033D02*
X121216666Y-78716033D01*
X120916666Y-79416033D02*
X120916666Y-78716033D01*
X120916666Y-78716033D02*
X120749999Y-78716033D01*
X120749999Y-78716033D02*
X120649999Y-78749366D01*
X120649999Y-78749366D02*
X120583333Y-78816033D01*
X120583333Y-78816033D02*
X120549999Y-78882700D01*
X120549999Y-78882700D02*
X120516666Y-79016033D01*
X120516666Y-79016033D02*
X120516666Y-79116033D01*
X120516666Y-79116033D02*
X120549999Y-79249366D01*
X120549999Y-79249366D02*
X120583333Y-79316033D01*
X120583333Y-79316033D02*
X120649999Y-79382700D01*
X120649999Y-79382700D02*
X120749999Y-79416033D01*
X120749999Y-79416033D02*
X120916666Y-79416033D01*
X120283333Y-78716033D02*
X119816666Y-78716033D01*
X119816666Y-78716033D02*
X120116666Y-79416033D01*
X62419048Y-79193247D02*
X62685714Y-79193247D01*
X62685714Y-79612295D02*
X62685714Y-78812295D01*
X62685714Y-78812295D02*
X62304762Y-78812295D01*
X61657143Y-79078961D02*
X61657143Y-79612295D01*
X62000000Y-79078961D02*
X62000000Y-79498009D01*
X62000000Y-79498009D02*
X61961905Y-79574200D01*
X61961905Y-79574200D02*
X61885715Y-79612295D01*
X61885715Y-79612295D02*
X61771429Y-79612295D01*
X61771429Y-79612295D02*
X61695238Y-79574200D01*
X61695238Y-79574200D02*
X61657143Y-79536104D01*
X61276190Y-79078961D02*
X61276190Y-79612295D01*
X61276190Y-79155152D02*
X61238095Y-79117057D01*
X61238095Y-79117057D02*
X61161905Y-79078961D01*
X61161905Y-79078961D02*
X61047619Y-79078961D01*
X61047619Y-79078961D02*
X60971428Y-79117057D01*
X60971428Y-79117057D02*
X60933333Y-79193247D01*
X60933333Y-79193247D02*
X60933333Y-79612295D01*
X60209523Y-79574200D02*
X60285714Y-79612295D01*
X60285714Y-79612295D02*
X60438095Y-79612295D01*
X60438095Y-79612295D02*
X60514285Y-79574200D01*
X60514285Y-79574200D02*
X60552380Y-79536104D01*
X60552380Y-79536104D02*
X60590476Y-79459914D01*
X60590476Y-79459914D02*
X60590476Y-79231342D01*
X60590476Y-79231342D02*
X60552380Y-79155152D01*
X60552380Y-79155152D02*
X60514285Y-79117057D01*
X60514285Y-79117057D02*
X60438095Y-79078961D01*
X60438095Y-79078961D02*
X60285714Y-79078961D01*
X60285714Y-79078961D02*
X60209523Y-79117057D01*
X59485714Y-79612295D02*
X59866666Y-79612295D01*
X59866666Y-79612295D02*
X59866666Y-78812295D01*
X59219047Y-79193247D02*
X58952381Y-79193247D01*
X58838095Y-79612295D02*
X59219047Y-79612295D01*
X59219047Y-79612295D02*
X59219047Y-78812295D01*
X59219047Y-78812295D02*
X58838095Y-78812295D01*
X58495237Y-79612295D02*
X58495237Y-78812295D01*
X58495237Y-78812295D02*
X58304761Y-78812295D01*
X58304761Y-78812295D02*
X58190475Y-78850390D01*
X58190475Y-78850390D02*
X58114285Y-78926580D01*
X58114285Y-78926580D02*
X58076190Y-79002771D01*
X58076190Y-79002771D02*
X58038094Y-79155152D01*
X58038094Y-79155152D02*
X58038094Y-79269438D01*
X58038094Y-79269438D02*
X58076190Y-79421819D01*
X58076190Y-79421819D02*
X58114285Y-79498009D01*
X58114285Y-79498009D02*
X58190475Y-79574200D01*
X58190475Y-79574200D02*
X58304761Y-79612295D01*
X58304761Y-79612295D02*
X58495237Y-79612295D01*
X57276190Y-79612295D02*
X57733333Y-79612295D01*
X57504761Y-79612295D02*
X57504761Y-78812295D01*
X57504761Y-78812295D02*
X57580952Y-78926580D01*
X57580952Y-78926580D02*
X57657142Y-79002771D01*
X57657142Y-79002771D02*
X57733333Y-79040866D01*
X102783333Y-60416033D02*
X103116666Y-60416033D01*
X103116666Y-60416033D02*
X103116666Y-59716033D01*
X102549999Y-60049366D02*
X102316666Y-60049366D01*
X102216666Y-60416033D02*
X102549999Y-60416033D01*
X102549999Y-60416033D02*
X102549999Y-59716033D01*
X102549999Y-59716033D02*
X102216666Y-59716033D01*
X101916666Y-60416033D02*
X101916666Y-59716033D01*
X101916666Y-59716033D02*
X101749999Y-59716033D01*
X101749999Y-59716033D02*
X101649999Y-59749366D01*
X101649999Y-59749366D02*
X101583333Y-59816033D01*
X101583333Y-59816033D02*
X101549999Y-59882700D01*
X101549999Y-59882700D02*
X101516666Y-60016033D01*
X101516666Y-60016033D02*
X101516666Y-60116033D01*
X101516666Y-60116033D02*
X101549999Y-60249366D01*
X101549999Y-60249366D02*
X101583333Y-60316033D01*
X101583333Y-60316033D02*
X101649999Y-60382700D01*
X101649999Y-60382700D02*
X101749999Y-60416033D01*
X101749999Y-60416033D02*
X101916666Y-60416033D01*
X101249999Y-59782700D02*
X101216666Y-59749366D01*
X101216666Y-59749366D02*
X101149999Y-59716033D01*
X101149999Y-59716033D02*
X100983333Y-59716033D01*
X100983333Y-59716033D02*
X100916666Y-59749366D01*
X100916666Y-59749366D02*
X100883333Y-59782700D01*
X100883333Y-59782700D02*
X100849999Y-59849366D01*
X100849999Y-59849366D02*
X100849999Y-59916033D01*
X100849999Y-59916033D02*
X100883333Y-60016033D01*
X100883333Y-60016033D02*
X101283333Y-60416033D01*
X101283333Y-60416033D02*
X100849999Y-60416033D01*
X83783333Y-60416033D02*
X84116666Y-60416033D01*
X84116666Y-60416033D02*
X84116666Y-59716033D01*
X83549999Y-60049366D02*
X83316666Y-60049366D01*
X83216666Y-60416033D02*
X83549999Y-60416033D01*
X83549999Y-60416033D02*
X83549999Y-59716033D01*
X83549999Y-59716033D02*
X83216666Y-59716033D01*
X82916666Y-60416033D02*
X82916666Y-59716033D01*
X82916666Y-59716033D02*
X82749999Y-59716033D01*
X82749999Y-59716033D02*
X82649999Y-59749366D01*
X82649999Y-59749366D02*
X82583333Y-59816033D01*
X82583333Y-59816033D02*
X82549999Y-59882700D01*
X82549999Y-59882700D02*
X82516666Y-60016033D01*
X82516666Y-60016033D02*
X82516666Y-60116033D01*
X82516666Y-60116033D02*
X82549999Y-60249366D01*
X82549999Y-60249366D02*
X82583333Y-60316033D01*
X82583333Y-60316033D02*
X82649999Y-60382700D01*
X82649999Y-60382700D02*
X82749999Y-60416033D01*
X82749999Y-60416033D02*
X82916666Y-60416033D01*
X81849999Y-60416033D02*
X82249999Y-60416033D01*
X82049999Y-60416033D02*
X82049999Y-59716033D01*
X82049999Y-59716033D02*
X82116666Y-59816033D01*
X82116666Y-59816033D02*
X82183333Y-59882700D01*
X82183333Y-59882700D02*
X82249999Y-59916033D01*
X141283333Y-60416033D02*
X141616666Y-60416033D01*
X141616666Y-60416033D02*
X141616666Y-59716033D01*
X141049999Y-60049366D02*
X140816666Y-60049366D01*
X140716666Y-60416033D02*
X141049999Y-60416033D01*
X141049999Y-60416033D02*
X141049999Y-59716033D01*
X141049999Y-59716033D02*
X140716666Y-59716033D01*
X140416666Y-60416033D02*
X140416666Y-59716033D01*
X140416666Y-59716033D02*
X140249999Y-59716033D01*
X140249999Y-59716033D02*
X140149999Y-59749366D01*
X140149999Y-59749366D02*
X140083333Y-59816033D01*
X140083333Y-59816033D02*
X140049999Y-59882700D01*
X140049999Y-59882700D02*
X140016666Y-60016033D01*
X140016666Y-60016033D02*
X140016666Y-60116033D01*
X140016666Y-60116033D02*
X140049999Y-60249366D01*
X140049999Y-60249366D02*
X140083333Y-60316033D01*
X140083333Y-60316033D02*
X140149999Y-60382700D01*
X140149999Y-60382700D02*
X140249999Y-60416033D01*
X140249999Y-60416033D02*
X140416666Y-60416033D01*
X139416666Y-59949366D02*
X139416666Y-60416033D01*
X139583333Y-59682700D02*
X139749999Y-60182700D01*
X139749999Y-60182700D02*
X139316666Y-60182700D01*
X121783333Y-60416033D02*
X122116666Y-60416033D01*
X122116666Y-60416033D02*
X122116666Y-59716033D01*
X121549999Y-60049366D02*
X121316666Y-60049366D01*
X121216666Y-60416033D02*
X121549999Y-60416033D01*
X121549999Y-60416033D02*
X121549999Y-59716033D01*
X121549999Y-59716033D02*
X121216666Y-59716033D01*
X120916666Y-60416033D02*
X120916666Y-59716033D01*
X120916666Y-59716033D02*
X120749999Y-59716033D01*
X120749999Y-59716033D02*
X120649999Y-59749366D01*
X120649999Y-59749366D02*
X120583333Y-59816033D01*
X120583333Y-59816033D02*
X120549999Y-59882700D01*
X120549999Y-59882700D02*
X120516666Y-60016033D01*
X120516666Y-60016033D02*
X120516666Y-60116033D01*
X120516666Y-60116033D02*
X120549999Y-60249366D01*
X120549999Y-60249366D02*
X120583333Y-60316033D01*
X120583333Y-60316033D02*
X120649999Y-60382700D01*
X120649999Y-60382700D02*
X120749999Y-60416033D01*
X120749999Y-60416033D02*
X120916666Y-60416033D01*
X120283333Y-59716033D02*
X119849999Y-59716033D01*
X119849999Y-59716033D02*
X120083333Y-59982700D01*
X120083333Y-59982700D02*
X119983333Y-59982700D01*
X119983333Y-59982700D02*
X119916666Y-60016033D01*
X119916666Y-60016033D02*
X119883333Y-60049366D01*
X119883333Y-60049366D02*
X119849999Y-60116033D01*
X119849999Y-60116033D02*
X119849999Y-60282700D01*
X119849999Y-60282700D02*
X119883333Y-60349366D01*
X119883333Y-60349366D02*
X119916666Y-60382700D01*
X119916666Y-60382700D02*
X119983333Y-60416033D01*
X119983333Y-60416033D02*
X120183333Y-60416033D01*
X120183333Y-60416033D02*
X120249999Y-60382700D01*
X120249999Y-60382700D02*
X120283333Y-60349366D01*
X70419048Y-79193247D02*
X70685714Y-79193247D01*
X70685714Y-79612295D02*
X70685714Y-78812295D01*
X70685714Y-78812295D02*
X70304762Y-78812295D01*
X69657143Y-79078961D02*
X69657143Y-79612295D01*
X70000000Y-79078961D02*
X70000000Y-79498009D01*
X70000000Y-79498009D02*
X69961905Y-79574200D01*
X69961905Y-79574200D02*
X69885715Y-79612295D01*
X69885715Y-79612295D02*
X69771429Y-79612295D01*
X69771429Y-79612295D02*
X69695238Y-79574200D01*
X69695238Y-79574200D02*
X69657143Y-79536104D01*
X69276190Y-79078961D02*
X69276190Y-79612295D01*
X69276190Y-79155152D02*
X69238095Y-79117057D01*
X69238095Y-79117057D02*
X69161905Y-79078961D01*
X69161905Y-79078961D02*
X69047619Y-79078961D01*
X69047619Y-79078961D02*
X68971428Y-79117057D01*
X68971428Y-79117057D02*
X68933333Y-79193247D01*
X68933333Y-79193247D02*
X68933333Y-79612295D01*
X68209523Y-79574200D02*
X68285714Y-79612295D01*
X68285714Y-79612295D02*
X68438095Y-79612295D01*
X68438095Y-79612295D02*
X68514285Y-79574200D01*
X68514285Y-79574200D02*
X68552380Y-79536104D01*
X68552380Y-79536104D02*
X68590476Y-79459914D01*
X68590476Y-79459914D02*
X68590476Y-79231342D01*
X68590476Y-79231342D02*
X68552380Y-79155152D01*
X68552380Y-79155152D02*
X68514285Y-79117057D01*
X68514285Y-79117057D02*
X68438095Y-79078961D01*
X68438095Y-79078961D02*
X68285714Y-79078961D01*
X68285714Y-79078961D02*
X68209523Y-79117057D01*
X67485714Y-79612295D02*
X67866666Y-79612295D01*
X67866666Y-79612295D02*
X67866666Y-78812295D01*
X67219047Y-79193247D02*
X66952381Y-79193247D01*
X66838095Y-79612295D02*
X67219047Y-79612295D01*
X67219047Y-79612295D02*
X67219047Y-78812295D01*
X67219047Y-78812295D02*
X66838095Y-78812295D01*
X66495237Y-79612295D02*
X66495237Y-78812295D01*
X66495237Y-78812295D02*
X66304761Y-78812295D01*
X66304761Y-78812295D02*
X66190475Y-78850390D01*
X66190475Y-78850390D02*
X66114285Y-78926580D01*
X66114285Y-78926580D02*
X66076190Y-79002771D01*
X66076190Y-79002771D02*
X66038094Y-79155152D01*
X66038094Y-79155152D02*
X66038094Y-79269438D01*
X66038094Y-79269438D02*
X66076190Y-79421819D01*
X66076190Y-79421819D02*
X66114285Y-79498009D01*
X66114285Y-79498009D02*
X66190475Y-79574200D01*
X66190475Y-79574200D02*
X66304761Y-79612295D01*
X66304761Y-79612295D02*
X66495237Y-79612295D01*
X65733333Y-78888485D02*
X65695237Y-78850390D01*
X65695237Y-78850390D02*
X65619047Y-78812295D01*
X65619047Y-78812295D02*
X65428571Y-78812295D01*
X65428571Y-78812295D02*
X65352380Y-78850390D01*
X65352380Y-78850390D02*
X65314285Y-78888485D01*
X65314285Y-78888485D02*
X65276190Y-78964676D01*
X65276190Y-78964676D02*
X65276190Y-79040866D01*
X65276190Y-79040866D02*
X65314285Y-79155152D01*
X65314285Y-79155152D02*
X65771428Y-79612295D01*
X65771428Y-79612295D02*
X65276190Y-79612295D01*
X83783333Y-98416033D02*
X84116666Y-98416033D01*
X84116666Y-98416033D02*
X84116666Y-97716033D01*
X83549999Y-98049366D02*
X83316666Y-98049366D01*
X83216666Y-98416033D02*
X83549999Y-98416033D01*
X83549999Y-98416033D02*
X83549999Y-97716033D01*
X83549999Y-97716033D02*
X83216666Y-97716033D01*
X82916666Y-98416033D02*
X82916666Y-97716033D01*
X82916666Y-97716033D02*
X82749999Y-97716033D01*
X82749999Y-97716033D02*
X82649999Y-97749366D01*
X82649999Y-97749366D02*
X82583333Y-97816033D01*
X82583333Y-97816033D02*
X82549999Y-97882700D01*
X82549999Y-97882700D02*
X82516666Y-98016033D01*
X82516666Y-98016033D02*
X82516666Y-98116033D01*
X82516666Y-98116033D02*
X82549999Y-98249366D01*
X82549999Y-98249366D02*
X82583333Y-98316033D01*
X82583333Y-98316033D02*
X82649999Y-98382700D01*
X82649999Y-98382700D02*
X82749999Y-98416033D01*
X82749999Y-98416033D02*
X82916666Y-98416033D01*
X82183333Y-98416033D02*
X82049999Y-98416033D01*
X82049999Y-98416033D02*
X81983333Y-98382700D01*
X81983333Y-98382700D02*
X81949999Y-98349366D01*
X81949999Y-98349366D02*
X81883333Y-98249366D01*
X81883333Y-98249366D02*
X81849999Y-98116033D01*
X81849999Y-98116033D02*
X81849999Y-97849366D01*
X81849999Y-97849366D02*
X81883333Y-97782700D01*
X81883333Y-97782700D02*
X81916666Y-97749366D01*
X81916666Y-97749366D02*
X81983333Y-97716033D01*
X81983333Y-97716033D02*
X82116666Y-97716033D01*
X82116666Y-97716033D02*
X82183333Y-97749366D01*
X82183333Y-97749366D02*
X82216666Y-97782700D01*
X82216666Y-97782700D02*
X82249999Y-97849366D01*
X82249999Y-97849366D02*
X82249999Y-98016033D01*
X82249999Y-98016033D02*
X82216666Y-98082700D01*
X82216666Y-98082700D02*
X82183333Y-98116033D01*
X82183333Y-98116033D02*
X82116666Y-98149366D01*
X82116666Y-98149366D02*
X81983333Y-98149366D01*
X81983333Y-98149366D02*
X81916666Y-98116033D01*
X81916666Y-98116033D02*
X81883333Y-98082700D01*
X81883333Y-98082700D02*
X81849999Y-98016033D01*
X141116667Y-98416033D02*
X141450000Y-98416033D01*
X141450000Y-98416033D02*
X141450000Y-97716033D01*
X140883333Y-98049366D02*
X140650000Y-98049366D01*
X140550000Y-98416033D02*
X140883333Y-98416033D01*
X140883333Y-98416033D02*
X140883333Y-97716033D01*
X140883333Y-97716033D02*
X140550000Y-97716033D01*
X140250000Y-98416033D02*
X140250000Y-97716033D01*
X140250000Y-97716033D02*
X140083333Y-97716033D01*
X140083333Y-97716033D02*
X139983333Y-97749366D01*
X139983333Y-97749366D02*
X139916667Y-97816033D01*
X139916667Y-97816033D02*
X139883333Y-97882700D01*
X139883333Y-97882700D02*
X139850000Y-98016033D01*
X139850000Y-98016033D02*
X139850000Y-98116033D01*
X139850000Y-98116033D02*
X139883333Y-98249366D01*
X139883333Y-98249366D02*
X139916667Y-98316033D01*
X139916667Y-98316033D02*
X139983333Y-98382700D01*
X139983333Y-98382700D02*
X140083333Y-98416033D01*
X140083333Y-98416033D02*
X140250000Y-98416033D01*
X139183333Y-98416033D02*
X139583333Y-98416033D01*
X139383333Y-98416033D02*
X139383333Y-97716033D01*
X139383333Y-97716033D02*
X139450000Y-97816033D01*
X139450000Y-97816033D02*
X139516667Y-97882700D01*
X139516667Y-97882700D02*
X139583333Y-97916033D01*
X138916666Y-97782700D02*
X138883333Y-97749366D01*
X138883333Y-97749366D02*
X138816666Y-97716033D01*
X138816666Y-97716033D02*
X138650000Y-97716033D01*
X138650000Y-97716033D02*
X138583333Y-97749366D01*
X138583333Y-97749366D02*
X138550000Y-97782700D01*
X138550000Y-97782700D02*
X138516666Y-97849366D01*
X138516666Y-97849366D02*
X138516666Y-97916033D01*
X138516666Y-97916033D02*
X138550000Y-98016033D01*
X138550000Y-98016033D02*
X138950000Y-98416033D01*
X138950000Y-98416033D02*
X138516666Y-98416033D01*
X140783333Y-79416033D02*
X141116666Y-79416033D01*
X141116666Y-79416033D02*
X141116666Y-78716033D01*
X140549999Y-79049366D02*
X140316666Y-79049366D01*
X140216666Y-79416033D02*
X140549999Y-79416033D01*
X140549999Y-79416033D02*
X140549999Y-78716033D01*
X140549999Y-78716033D02*
X140216666Y-78716033D01*
X139916666Y-79416033D02*
X139916666Y-78716033D01*
X139916666Y-78716033D02*
X139749999Y-78716033D01*
X139749999Y-78716033D02*
X139649999Y-78749366D01*
X139649999Y-78749366D02*
X139583333Y-78816033D01*
X139583333Y-78816033D02*
X139549999Y-78882700D01*
X139549999Y-78882700D02*
X139516666Y-79016033D01*
X139516666Y-79016033D02*
X139516666Y-79116033D01*
X139516666Y-79116033D02*
X139549999Y-79249366D01*
X139549999Y-79249366D02*
X139583333Y-79316033D01*
X139583333Y-79316033D02*
X139649999Y-79382700D01*
X139649999Y-79382700D02*
X139749999Y-79416033D01*
X139749999Y-79416033D02*
X139916666Y-79416033D01*
X139116666Y-79016033D02*
X139183333Y-78982700D01*
X139183333Y-78982700D02*
X139216666Y-78949366D01*
X139216666Y-78949366D02*
X139249999Y-78882700D01*
X139249999Y-78882700D02*
X139249999Y-78849366D01*
X139249999Y-78849366D02*
X139216666Y-78782700D01*
X139216666Y-78782700D02*
X139183333Y-78749366D01*
X139183333Y-78749366D02*
X139116666Y-78716033D01*
X139116666Y-78716033D02*
X138983333Y-78716033D01*
X138983333Y-78716033D02*
X138916666Y-78749366D01*
X138916666Y-78749366D02*
X138883333Y-78782700D01*
X138883333Y-78782700D02*
X138849999Y-78849366D01*
X138849999Y-78849366D02*
X138849999Y-78882700D01*
X138849999Y-78882700D02*
X138883333Y-78949366D01*
X138883333Y-78949366D02*
X138916666Y-78982700D01*
X138916666Y-78982700D02*
X138983333Y-79016033D01*
X138983333Y-79016033D02*
X139116666Y-79016033D01*
X139116666Y-79016033D02*
X139183333Y-79049366D01*
X139183333Y-79049366D02*
X139216666Y-79082700D01*
X139216666Y-79082700D02*
X139249999Y-79149366D01*
X139249999Y-79149366D02*
X139249999Y-79282700D01*
X139249999Y-79282700D02*
X139216666Y-79349366D01*
X139216666Y-79349366D02*
X139183333Y-79382700D01*
X139183333Y-79382700D02*
X139116666Y-79416033D01*
X139116666Y-79416033D02*
X138983333Y-79416033D01*
X138983333Y-79416033D02*
X138916666Y-79382700D01*
X138916666Y-79382700D02*
X138883333Y-79349366D01*
X138883333Y-79349366D02*
X138849999Y-79282700D01*
X138849999Y-79282700D02*
X138849999Y-79149366D01*
X138849999Y-79149366D02*
X138883333Y-79082700D01*
X138883333Y-79082700D02*
X138916666Y-79049366D01*
X138916666Y-79049366D02*
X138983333Y-79016033D01*
D11*
%TO.C,S7*%
X117000000Y-65650000D02*
X122100000Y-65650000D01*
X120900000Y-69850000D02*
X126000000Y-69850000D01*
X117000000Y-65650000D02*
G75*
G03*
X115000000Y-67650000I-1J-1999999D01*
G01*
X120900000Y-69850000D02*
G75*
G03*
X118900000Y-71850000I-1J-1999999D01*
G01*
%TO.C,S5*%
X78900000Y-65650000D02*
X84000000Y-65650000D01*
X82800000Y-69850000D02*
X87900000Y-69850000D01*
X78900000Y-65650000D02*
G75*
G03*
X76900000Y-67650000I-1J-1999999D01*
G01*
X82800000Y-69850000D02*
G75*
G03*
X80800000Y-71850000I-1J-1999999D01*
G01*
%TO.C,S1*%
X78900000Y-46600000D02*
X84000000Y-46600000D01*
X82800000Y-50800000D02*
X87900000Y-50800000D01*
X78900000Y-46600000D02*
G75*
G03*
X76900000Y-48600000I-1J-1999999D01*
G01*
X82800000Y-50800000D02*
G75*
G03*
X80800000Y-52800000I-1J-1999999D01*
G01*
%TO.C,S10*%
X97950000Y-84700000D02*
X103050000Y-84700000D01*
X101850000Y-88900000D02*
X106950000Y-88900000D01*
X97950000Y-84700000D02*
G75*
G03*
X95950000Y-86700000I-1J-1999999D01*
G01*
X101850000Y-88900000D02*
G75*
G03*
X99850000Y-90900000I-1J-1999999D01*
G01*
%TO.C,S4*%
X136050000Y-46600000D02*
X141150000Y-46600000D01*
X139950000Y-50800000D02*
X145050000Y-50800000D01*
X136050000Y-46600000D02*
G75*
G03*
X134050000Y-48600000I-1J-1999999D01*
G01*
X139950000Y-50800000D02*
G75*
G03*
X137950000Y-52800000I-1J-1999999D01*
G01*
%TO.C,ModeButton1*%
X59858000Y-84700000D02*
X64958000Y-84700000D01*
X63758000Y-88900000D02*
X68858000Y-88900000D01*
X59858000Y-84700000D02*
G75*
G03*
X57858000Y-86700000I-1J-1999999D01*
G01*
X63758000Y-88900000D02*
G75*
G03*
X61758000Y-90900000I-1J-1999999D01*
G01*
%TO.C,S11*%
X117000000Y-84700000D02*
X122100000Y-84700000D01*
X120900000Y-88900000D02*
X126000000Y-88900000D01*
X117000000Y-84700000D02*
G75*
G03*
X115000000Y-86700000I-1J-1999999D01*
G01*
X120900000Y-88900000D02*
G75*
G03*
X118900000Y-90900000I-1J-1999999D01*
G01*
%TO.C,S6*%
X97950000Y-65650000D02*
X103050000Y-65650000D01*
X101850000Y-69850000D02*
X106950000Y-69850000D01*
X97950000Y-65650000D02*
G75*
G03*
X95950000Y-67650000I-1J-1999999D01*
G01*
X101850000Y-69850000D02*
G75*
G03*
X99850000Y-71850000I-1J-1999999D01*
G01*
%TO.C,S2*%
X97950000Y-46600000D02*
X103050000Y-46600000D01*
X101850000Y-50800000D02*
X106950000Y-50800000D01*
X97950000Y-46600000D02*
G75*
G03*
X95950000Y-48600000I-1J-1999999D01*
G01*
X101850000Y-50800000D02*
G75*
G03*
X99850000Y-52800000I-1J-1999999D01*
G01*
D12*
%TO.C,U2*%
X54110000Y-27255000D02*
X54110000Y-60275000D01*
X54110000Y-60275000D02*
X71890000Y-60275000D01*
X56650000Y-29795000D02*
X54110000Y-29795000D01*
X56650000Y-29795000D02*
X56650000Y-32335000D01*
X56650000Y-32335000D02*
X54110000Y-32335000D01*
X71890000Y-27255000D02*
X54110000Y-27255000D01*
X71890000Y-60275000D02*
X71890000Y-27255000D01*
D10*
X69344635Y-35784030D02*
X68844635Y-35784030D01*
X68844635Y-35684030D01*
X69344635Y-35684030D01*
X69344635Y-35784030D01*
G36*
X69344635Y-35784030D02*
G01*
X68844635Y-35784030D01*
X68844635Y-35684030D01*
X69344635Y-35684030D01*
X69344635Y-35784030D01*
G37*
X68944635Y-35984030D02*
X68844635Y-35984030D01*
X68844635Y-35684030D01*
X68944635Y-35684030D01*
X68944635Y-35984030D01*
G36*
X68944635Y-35984030D02*
G01*
X68844635Y-35984030D01*
X68844635Y-35684030D01*
X68944635Y-35684030D01*
X68944635Y-35984030D01*
G37*
X68944635Y-36484030D02*
X68844635Y-36484030D01*
X68844635Y-36284030D01*
X68944635Y-36284030D01*
X68944635Y-36484030D01*
G36*
X68944635Y-36484030D02*
G01*
X68844635Y-36484030D01*
X68844635Y-36284030D01*
X68944635Y-36284030D01*
X68944635Y-36484030D01*
G37*
X69144635Y-36184030D02*
X69044635Y-36184030D01*
X69044635Y-36084030D01*
X69144635Y-36084030D01*
X69144635Y-36184030D01*
G36*
X69144635Y-36184030D02*
G01*
X69044635Y-36184030D01*
X69044635Y-36084030D01*
X69144635Y-36084030D01*
X69144635Y-36184030D01*
G37*
X69344635Y-36484030D02*
X69244635Y-36484030D01*
X69244635Y-35684030D01*
X69344635Y-35684030D01*
X69344635Y-36484030D01*
G36*
X69344635Y-36484030D02*
G01*
X69244635Y-36484030D01*
X69244635Y-35684030D01*
X69344635Y-35684030D01*
X69344635Y-36484030D01*
G37*
D11*
%TO.C,S9*%
X78900000Y-84700000D02*
X84000000Y-84700000D01*
X82800000Y-88900000D02*
X87900000Y-88900000D01*
X78900000Y-84700000D02*
G75*
G03*
X76900000Y-86700000I-1J-1999999D01*
G01*
X82800000Y-88900000D02*
G75*
G03*
X80800000Y-90900000I-1J-1999999D01*
G01*
%TO.C,S8*%
X136050000Y-65650000D02*
X141150000Y-65650000D01*
X139950000Y-69850000D02*
X145050000Y-69850000D01*
X136050000Y-65650000D02*
G75*
G03*
X134050000Y-67650000I-1J-1999999D01*
G01*
X139950000Y-69850000D02*
G75*
G03*
X137950000Y-71850000I-1J-1999999D01*
G01*
%TO.C,S12*%
X136050000Y-84700000D02*
X141150000Y-84700000D01*
X139950000Y-88900000D02*
X145050000Y-88900000D01*
X136050000Y-84700000D02*
G75*
G03*
X134050000Y-86700000I-1J-1999999D01*
G01*
X139950000Y-88900000D02*
G75*
G03*
X137950000Y-90900000I-1J-1999999D01*
G01*
%TO.C,S3*%
X117000000Y-46600000D02*
X122100000Y-46600000D01*
X120900000Y-50800000D02*
X126000000Y-50800000D01*
X117000000Y-46600000D02*
G75*
G03*
X115000000Y-48600000I-1J-1999999D01*
G01*
X120900000Y-50800000D02*
G75*
G03*
X118900000Y-52800000I-1J-1999999D01*
G01*
D10*
%TO.C,D10*%
X111415000Y-84210000D02*
X111415000Y-84610000D01*
X111415000Y-84610000D02*
X111965000Y-84610000D01*
X111415000Y-84610000D02*
X110865000Y-84610000D01*
X111415000Y-84610000D02*
X111015000Y-85210000D01*
X111815000Y-85210000D02*
X111415000Y-84610000D01*
X111415000Y-85210000D02*
X111415000Y-85710000D01*
X111015000Y-85210000D02*
X111815000Y-85210000D01*
%TO.C,LED11*%
D13*
X118800000Y-94600000D02*
X118200000Y-94600000D01*
X118800000Y-94000000D01*
X118800000Y-94600000D01*
G36*
X118800000Y-94600000D02*
G01*
X118200000Y-94600000D01*
X118800000Y-94000000D01*
X118800000Y-94600000D01*
G37*
%TO.C,LED5*%
X80800000Y-75600000D02*
X80200000Y-75600000D01*
X80800000Y-75000000D01*
X80800000Y-75600000D01*
G36*
X80800000Y-75600000D02*
G01*
X80200000Y-75600000D01*
X80800000Y-75000000D01*
X80800000Y-75600000D01*
G37*
%TO.C,LED10*%
X99800000Y-94600000D02*
X99200000Y-94600000D01*
X99800000Y-94000000D01*
X99800000Y-94600000D01*
G36*
X99800000Y-94600000D02*
G01*
X99200000Y-94600000D01*
X99800000Y-94000000D01*
X99800000Y-94600000D01*
G37*
%TO.C,ModeLED1*%
X61800000Y-94600000D02*
X61200000Y-94600000D01*
X61800000Y-94000000D01*
X61800000Y-94600000D01*
G36*
X61800000Y-94600000D02*
G01*
X61200000Y-94600000D01*
X61800000Y-94000000D01*
X61800000Y-94600000D01*
G37*
D10*
%TO.C,D5*%
X92415000Y-65210000D02*
X92415000Y-65610000D01*
X92415000Y-65610000D02*
X92965000Y-65610000D01*
X92415000Y-65610000D02*
X91865000Y-65610000D01*
X92415000Y-65610000D02*
X92015000Y-66210000D01*
X92815000Y-66210000D02*
X92415000Y-65610000D01*
X92415000Y-66210000D02*
X92415000Y-66710000D01*
X92015000Y-66210000D02*
X92815000Y-66210000D01*
D11*
%TO.C,R1*%
X64160000Y-38772936D02*
X64160000Y-40227064D01*
X62340000Y-38772936D02*
X62340000Y-40227064D01*
%TO.C,LED6*%
D13*
X99800000Y-75600000D02*
X99200000Y-75600000D01*
X99800000Y-75000000D01*
X99800000Y-75600000D01*
G36*
X99800000Y-75600000D02*
G01*
X99200000Y-75600000D01*
X99800000Y-75000000D01*
X99800000Y-75600000D01*
G37*
D10*
%TO.C,D1*%
X92415000Y-46210000D02*
X92415000Y-46610000D01*
X92415000Y-46610000D02*
X92965000Y-46610000D01*
X92415000Y-46610000D02*
X91865000Y-46610000D01*
X92415000Y-46610000D02*
X92015000Y-47210000D01*
X92815000Y-47210000D02*
X92415000Y-46610000D01*
X92415000Y-47210000D02*
X92415000Y-47710000D01*
X92015000Y-47210000D02*
X92815000Y-47210000D01*
%TO.C,D2*%
X111415000Y-46210000D02*
X111415000Y-46610000D01*
X111415000Y-46610000D02*
X111965000Y-46610000D01*
X111415000Y-46610000D02*
X110865000Y-46610000D01*
X111415000Y-46610000D02*
X111015000Y-47210000D01*
X111815000Y-47210000D02*
X111415000Y-46610000D01*
X111415000Y-47210000D02*
X111415000Y-47710000D01*
X111015000Y-47210000D02*
X111815000Y-47210000D01*
%TO.C,LED7*%
D13*
X118800000Y-75600000D02*
X118200000Y-75600000D01*
X118800000Y-75000000D01*
X118800000Y-75600000D01*
G36*
X118800000Y-75600000D02*
G01*
X118200000Y-75600000D01*
X118800000Y-75000000D01*
X118800000Y-75600000D01*
G37*
D10*
%TO.C,D9*%
X92415000Y-84210000D02*
X92415000Y-84610000D01*
X92415000Y-84610000D02*
X92965000Y-84610000D01*
X92415000Y-84610000D02*
X91865000Y-84610000D01*
X92415000Y-84610000D02*
X92015000Y-85210000D01*
X92815000Y-85210000D02*
X92415000Y-84610000D01*
X92415000Y-85210000D02*
X92415000Y-85710000D01*
X92015000Y-85210000D02*
X92815000Y-85210000D01*
%TO.C,D6*%
X111415000Y-65210000D02*
X111415000Y-65610000D01*
X111415000Y-65610000D02*
X111965000Y-65610000D01*
X111415000Y-65610000D02*
X110865000Y-65610000D01*
X111415000Y-65610000D02*
X111015000Y-66210000D01*
X111815000Y-66210000D02*
X111415000Y-65610000D01*
X111415000Y-66210000D02*
X111415000Y-66710000D01*
X111015000Y-66210000D02*
X111815000Y-66210000D01*
%TO.C,FuncLED1*%
D13*
X57800000Y-75600000D02*
X57200000Y-75600000D01*
X57800000Y-75000000D01*
X57800000Y-75600000D01*
G36*
X57800000Y-75600000D02*
G01*
X57200000Y-75600000D01*
X57800000Y-75000000D01*
X57800000Y-75600000D01*
G37*
D10*
%TO.C,D8*%
X149415000Y-65210000D02*
X149415000Y-65610000D01*
X149415000Y-65610000D02*
X149965000Y-65610000D01*
X149415000Y-65610000D02*
X148865000Y-65610000D01*
X149415000Y-65610000D02*
X149015000Y-66210000D01*
X149815000Y-66210000D02*
X149415000Y-65610000D01*
X149415000Y-66210000D02*
X149415000Y-66710000D01*
X149015000Y-66210000D02*
X149815000Y-66210000D01*
%TO.C,LED2*%
D13*
X99800000Y-56600000D02*
X99200000Y-56600000D01*
X99800000Y-56000000D01*
X99800000Y-56600000D01*
G36*
X99800000Y-56600000D02*
G01*
X99200000Y-56600000D01*
X99800000Y-56000000D01*
X99800000Y-56600000D01*
G37*
%TO.C,LED1*%
X80800000Y-56600000D02*
X80200000Y-56600000D01*
X80800000Y-56000000D01*
X80800000Y-56600000D01*
G36*
X80800000Y-56600000D02*
G01*
X80200000Y-56600000D01*
X80800000Y-56000000D01*
X80800000Y-56600000D01*
G37*
%TO.C,LED4*%
X138300000Y-56600000D02*
X137700000Y-56600000D01*
X138300000Y-56000000D01*
X138300000Y-56600000D01*
G36*
X138300000Y-56600000D02*
G01*
X137700000Y-56600000D01*
X138300000Y-56000000D01*
X138300000Y-56600000D01*
G37*
%TO.C,LED3*%
X118800000Y-56600000D02*
X118200000Y-56600000D01*
X118800000Y-56000000D01*
X118800000Y-56600000D01*
G36*
X118800000Y-56600000D02*
G01*
X118200000Y-56600000D01*
X118800000Y-56000000D01*
X118800000Y-56600000D01*
G37*
%TO.C,FuncLED2*%
X65800000Y-75600000D02*
X65200000Y-75600000D01*
X65800000Y-75000000D01*
X65800000Y-75600000D01*
G36*
X65800000Y-75600000D02*
G01*
X65200000Y-75600000D01*
X65800000Y-75000000D01*
X65800000Y-75600000D01*
G37*
%TO.C,LED9*%
X80800000Y-94600000D02*
X80200000Y-94600000D01*
X80800000Y-94000000D01*
X80800000Y-94600000D01*
G36*
X80800000Y-94600000D02*
G01*
X80200000Y-94600000D01*
X80800000Y-94000000D01*
X80800000Y-94600000D01*
G37*
D10*
%TO.C,D11*%
X130415000Y-84210000D02*
X130415000Y-84610000D01*
X130415000Y-84610000D02*
X130965000Y-84610000D01*
X130415000Y-84610000D02*
X129865000Y-84610000D01*
X130415000Y-84610000D02*
X130015000Y-85210000D01*
X130815000Y-85210000D02*
X130415000Y-84610000D01*
X130415000Y-85210000D02*
X130415000Y-85710000D01*
X130015000Y-85210000D02*
X130815000Y-85210000D01*
%TO.C,D4*%
X149415000Y-46210000D02*
X149415000Y-46610000D01*
X149415000Y-46610000D02*
X149965000Y-46610000D01*
X149415000Y-46610000D02*
X148865000Y-46610000D01*
X149415000Y-46610000D02*
X149015000Y-47210000D01*
X149815000Y-47210000D02*
X149415000Y-46610000D01*
X149415000Y-47210000D02*
X149415000Y-47710000D01*
X149015000Y-47210000D02*
X149815000Y-47210000D01*
%TO.C,LED12*%
D13*
X137800000Y-94600000D02*
X137200000Y-94600000D01*
X137800000Y-94000000D01*
X137800000Y-94600000D01*
G36*
X137800000Y-94600000D02*
G01*
X137200000Y-94600000D01*
X137800000Y-94000000D01*
X137800000Y-94600000D01*
G37*
%TO.C,LED8*%
X137800000Y-75600000D02*
X137200000Y-75600000D01*
X137800000Y-75000000D01*
X137800000Y-75600000D01*
G36*
X137800000Y-75600000D02*
G01*
X137200000Y-75600000D01*
X137800000Y-75000000D01*
X137800000Y-75600000D01*
G37*
D10*
%TO.C,D12*%
X149415000Y-84210000D02*
X149415000Y-84610000D01*
X149415000Y-84610000D02*
X149965000Y-84610000D01*
X149415000Y-84610000D02*
X148865000Y-84610000D01*
X149415000Y-84610000D02*
X149015000Y-85210000D01*
X149815000Y-85210000D02*
X149415000Y-84610000D01*
X149415000Y-85210000D02*
X149415000Y-85710000D01*
X149015000Y-85210000D02*
X149815000Y-85210000D01*
%TO.C,D7*%
X130415000Y-65210000D02*
X130415000Y-65610000D01*
X130415000Y-65610000D02*
X130965000Y-65610000D01*
X130415000Y-65610000D02*
X129865000Y-65610000D01*
X130415000Y-65610000D02*
X130015000Y-66210000D01*
X130815000Y-66210000D02*
X130415000Y-65610000D01*
X130415000Y-66210000D02*
X130415000Y-66710000D01*
X130015000Y-66210000D02*
X130815000Y-66210000D01*
%TO.C,D3*%
X130415000Y-46210000D02*
X130415000Y-46610000D01*
X130415000Y-46610000D02*
X130965000Y-46610000D01*
X130415000Y-46610000D02*
X129865000Y-46610000D01*
X130415000Y-46610000D02*
X130015000Y-47210000D01*
X130815000Y-47210000D02*
X130415000Y-46610000D01*
X130415000Y-47210000D02*
X130415000Y-47710000D01*
X130015000Y-47210000D02*
X130815000Y-47210000D01*
%TD*%
D14*
%TO.C,U2*%
X55380000Y-31065000D03*
D15*
X55380000Y-33605000D03*
X55380000Y-36145000D03*
X55380000Y-38685000D03*
X55380000Y-41225000D03*
X55380000Y-43765000D03*
X55380000Y-46305000D03*
X55380000Y-48845000D03*
X55380000Y-51385000D03*
X55380000Y-53925000D03*
X55380000Y-56465000D03*
X55380000Y-59005000D03*
X70620000Y-59005000D03*
X70620000Y-56465000D03*
X70620000Y-53925000D03*
X70620000Y-51385000D03*
X70620000Y-48845000D03*
X70620000Y-46305000D03*
X70620000Y-43765000D03*
X70620000Y-41225000D03*
X70620000Y-38685000D03*
X70620000Y-36145000D03*
X70620000Y-33605000D03*
X70620000Y-31065000D03*
%TD*%
M02*
