%TF.GenerationSoftware,KiCad,Pcbnew,7.0.9*%
%TF.CreationDate,2024-04-10T10:39:18-07:00*%
%TF.ProjectId,macrov2.2.001,6d616372-6f76-4322-9e32-2e3030312e6b,2.2.001*%
%TF.SameCoordinates,Original*%
%TF.FileFunction,Paste,Bot*%
%TF.FilePolarity,Positive*%
%FSLAX46Y46*%
G04 Gerber Fmt 4.6, Leading zero omitted, Abs format (unit mm)*
G04 Created by KiCad (PCBNEW 7.0.9) date 2024-04-10 10:39:18*
%MOMM*%
%LPD*%
G01*
G04 APERTURE LIST*
G04 Aperture macros list*
%AMRoundRect*
0 Rectangle with rounded corners*
0 $1 Rounding radius*
0 $2 $3 $4 $5 $6 $7 $8 $9 X,Y pos of 4 corners*
0 Add a 4 corners polygon primitive as box body*
4,1,4,$2,$3,$4,$5,$6,$7,$8,$9,$2,$3,0*
0 Add four circle primitives for the rounded corners*
1,1,$1+$1,$2,$3*
1,1,$1+$1,$4,$5*
1,1,$1+$1,$6,$7*
1,1,$1+$1,$8,$9*
0 Add four rect primitives between the rounded corners*
20,1,$1+$1,$2,$3,$4,$5,0*
20,1,$1+$1,$4,$5,$6,$7,0*
20,1,$1+$1,$6,$7,$8,$9,0*
20,1,$1+$1,$8,$9,$2,$3,0*%
G04 Aperture macros list end*
%ADD10RoundRect,0.250000X-1.025000X-1.000000X1.025000X-1.000000X1.025000X1.000000X-1.025000X1.000000X0*%
%ADD11RoundRect,0.225000X-0.375000X0.225000X-0.375000X-0.225000X0.375000X-0.225000X0.375000X0.225000X0*%
%ADD12R,1.700000X0.820000*%
%ADD13RoundRect,0.205000X0.645000X0.205000X-0.645000X0.205000X-0.645000X-0.205000X0.645000X-0.205000X0*%
%ADD14RoundRect,0.250000X-0.625000X0.312500X-0.625000X-0.312500X0.625000X-0.312500X0.625000X0.312500X0*%
G04 APERTURE END LIST*
D10*
%TO.C,S7*%
X114015000Y-70010000D03*
X126942000Y-67470000D03*
%TD*%
%TO.C,S5*%
X75915000Y-70010000D03*
X88842000Y-67470000D03*
%TD*%
%TO.C,S1*%
X75915000Y-50960000D03*
X88842000Y-48420000D03*
%TD*%
%TO.C,S10*%
X94965000Y-89060000D03*
X107892000Y-86520000D03*
%TD*%
%TO.C,S4*%
X133065000Y-50960000D03*
X145992000Y-48420000D03*
%TD*%
%TO.C,ModeButton1*%
X56873000Y-89060000D03*
X69800000Y-86520000D03*
%TD*%
%TO.C,S11*%
X114015000Y-89060000D03*
X126942000Y-86520000D03*
%TD*%
%TO.C,S6*%
X94965000Y-70010000D03*
X107892000Y-67470000D03*
%TD*%
%TO.C,S2*%
X94965000Y-50960000D03*
X107892000Y-48420000D03*
%TD*%
%TO.C,S9*%
X75915000Y-89060000D03*
X88842000Y-86520000D03*
%TD*%
%TO.C,S8*%
X133065000Y-70010000D03*
X145992000Y-67470000D03*
%TD*%
%TO.C,S12*%
X133065000Y-89060000D03*
X145992000Y-86520000D03*
%TD*%
%TO.C,S3*%
X114015000Y-50960000D03*
X126942000Y-48420000D03*
%TD*%
D11*
%TO.C,D10*%
X111415000Y-83310000D03*
X111415000Y-86610000D03*
%TD*%
D12*
%TO.C,LED11*%
X123550000Y-96750000D03*
X123550000Y-95250000D03*
D13*
X118450000Y-95250000D03*
D12*
X118450000Y-96750000D03*
%TD*%
%TO.C,LED5*%
X85550000Y-77750000D03*
X85550000Y-76250000D03*
D13*
X80450000Y-76250000D03*
D12*
X80450000Y-77750000D03*
%TD*%
%TO.C,LED10*%
X104550000Y-96750000D03*
X104550000Y-95250000D03*
D13*
X99450000Y-95250000D03*
D12*
X99450000Y-96750000D03*
%TD*%
%TO.C,ModeLED1*%
X66550000Y-96750000D03*
X66550000Y-95250000D03*
D13*
X61450000Y-95250000D03*
D12*
X61450000Y-96750000D03*
%TD*%
D11*
%TO.C,D5*%
X92415000Y-64310000D03*
X92415000Y-67610000D03*
%TD*%
D14*
%TO.C,R1*%
X63250000Y-38037500D03*
X63250000Y-40962500D03*
%TD*%
D12*
%TO.C,LED6*%
X104550000Y-77750000D03*
X104550000Y-76250000D03*
D13*
X99450000Y-76250000D03*
D12*
X99450000Y-77750000D03*
%TD*%
D11*
%TO.C,D1*%
X92415000Y-45310000D03*
X92415000Y-48610000D03*
%TD*%
%TO.C,D2*%
X111415000Y-45310000D03*
X111415000Y-48610000D03*
%TD*%
D12*
%TO.C,LED7*%
X123550000Y-77750000D03*
X123550000Y-76250000D03*
D13*
X118450000Y-76250000D03*
D12*
X118450000Y-77750000D03*
%TD*%
D11*
%TO.C,D9*%
X92415000Y-83310000D03*
X92415000Y-86610000D03*
%TD*%
%TO.C,D6*%
X111415000Y-64310000D03*
X111415000Y-67610000D03*
%TD*%
D12*
%TO.C,FuncLED1*%
X62550000Y-77750000D03*
X62550000Y-76250000D03*
D13*
X57450000Y-76250000D03*
D12*
X57450000Y-77750000D03*
%TD*%
D11*
%TO.C,D8*%
X149415000Y-64310000D03*
X149415000Y-67610000D03*
%TD*%
D12*
%TO.C,LED2*%
X104550000Y-58750000D03*
X104550000Y-57250000D03*
D13*
X99450000Y-57250000D03*
D12*
X99450000Y-58750000D03*
%TD*%
%TO.C,LED1*%
X85550000Y-58750000D03*
X85550000Y-57250000D03*
D13*
X80450000Y-57250000D03*
D12*
X80450000Y-58750000D03*
%TD*%
%TO.C,LED4*%
X143050000Y-58750000D03*
X143050000Y-57250000D03*
D13*
X137950000Y-57250000D03*
D12*
X137950000Y-58750000D03*
%TD*%
%TO.C,LED3*%
X123550000Y-58750000D03*
X123550000Y-57250000D03*
D13*
X118450000Y-57250000D03*
D12*
X118450000Y-58750000D03*
%TD*%
%TO.C,FuncLED2*%
X70550000Y-77750000D03*
X70550000Y-76250000D03*
D13*
X65450000Y-76250000D03*
D12*
X65450000Y-77750000D03*
%TD*%
%TO.C,LED9*%
X85550000Y-96750000D03*
X85550000Y-95250000D03*
D13*
X80450000Y-95250000D03*
D12*
X80450000Y-96750000D03*
%TD*%
D11*
%TO.C,D11*%
X130415000Y-83310000D03*
X130415000Y-86610000D03*
%TD*%
%TO.C,D4*%
X149415000Y-45310000D03*
X149415000Y-48610000D03*
%TD*%
D12*
%TO.C,LED12*%
X142550000Y-96750000D03*
X142550000Y-95250000D03*
D13*
X137450000Y-95250000D03*
D12*
X137450000Y-96750000D03*
%TD*%
%TO.C,LED8*%
X142550000Y-77750000D03*
X142550000Y-76250000D03*
D13*
X137450000Y-76250000D03*
D12*
X137450000Y-77750000D03*
%TD*%
D11*
%TO.C,D12*%
X149415000Y-83310000D03*
X149415000Y-86610000D03*
%TD*%
%TO.C,D7*%
X130415000Y-64310000D03*
X130415000Y-67610000D03*
%TD*%
%TO.C,D3*%
X130415000Y-45310000D03*
X130415000Y-48610000D03*
%TD*%
M02*
