%TF.GenerationSoftware,KiCad,Pcbnew,7.0.9*%
%TF.CreationDate,2024-04-10T10:39:18-07:00*%
%TF.ProjectId,macrov2.2.001,6d616372-6f76-4322-9e32-2e3030312e6b,2.2.001*%
%TF.SameCoordinates,Original*%
%TF.FileFunction,Soldermask,Bot*%
%TF.FilePolarity,Negative*%
%FSLAX46Y46*%
G04 Gerber Fmt 4.6, Leading zero omitted, Abs format (unit mm)*
G04 Created by KiCad (PCBNEW 7.0.9) date 2024-04-10 10:39:18*
%MOMM*%
%LPD*%
G01*
G04 APERTURE LIST*
G04 Aperture macros list*
%AMRoundRect*
0 Rectangle with rounded corners*
0 $1 Rounding radius*
0 $2 $3 $4 $5 $6 $7 $8 $9 X,Y pos of 4 corners*
0 Add a 4 corners polygon primitive as box body*
4,1,4,$2,$3,$4,$5,$6,$7,$8,$9,$2,$3,0*
0 Add four circle primitives for the rounded corners*
1,1,$1+$1,$2,$3*
1,1,$1+$1,$4,$5*
1,1,$1+$1,$6,$7*
1,1,$1+$1,$8,$9*
0 Add four rect primitives between the rounded corners*
20,1,$1+$1,$2,$3,$4,$5,0*
20,1,$1+$1,$4,$5,$6,$7,0*
20,1,$1+$1,$6,$7,$8,$9,0*
20,1,$1+$1,$8,$9,$2,$3,0*%
G04 Aperture macros list end*
%ADD10C,2.000000*%
%ADD11RoundRect,0.250000X-1.025000X-1.000000X1.025000X-1.000000X1.025000X1.000000X-1.025000X1.000000X0*%
%ADD12C,1.750000*%
%ADD13C,4.000000*%
%ADD14C,3.600000*%
%ADD15R,2.000000X2.000000*%
%ADD16R,3.200000X2.000000*%
%ADD17R,1.752600X1.752600*%
%ADD18C,1.752600*%
%ADD19RoundRect,0.225000X-0.375000X0.225000X-0.375000X-0.225000X0.375000X-0.225000X0.375000X0.225000X0*%
%ADD20R,1.700000X0.820000*%
%ADD21RoundRect,0.205000X0.645000X0.205000X-0.645000X0.205000X-0.645000X-0.205000X0.645000X-0.205000X0*%
%ADD22RoundRect,0.250000X-0.625000X0.312500X-0.625000X-0.312500X0.625000X-0.312500X0.625000X0.312500X0*%
G04 APERTURE END LIST*
D10*
%TO.C,SW1*%
X79750000Y-32750000D03*
X86250000Y-32750000D03*
X79750000Y-37250000D03*
X86250000Y-37250000D03*
%TD*%
D11*
%TO.C,S7*%
X114015000Y-70010000D03*
D12*
X116020000Y-72550000D03*
D13*
X121100000Y-72550000D03*
D12*
X126180000Y-72550000D03*
D11*
X126942000Y-67470000D03*
D14*
X117290000Y-70010000D03*
X123640000Y-67470000D03*
%TD*%
D11*
%TO.C,S5*%
X75915000Y-70010000D03*
D12*
X77920000Y-72550000D03*
D13*
X83000000Y-72550000D03*
D12*
X88080000Y-72550000D03*
D11*
X88842000Y-67470000D03*
D14*
X79190000Y-70010000D03*
X85540000Y-67470000D03*
%TD*%
D15*
%TO.C,SW3*%
X132750000Y-31500000D03*
D10*
X132750000Y-36500000D03*
X132750000Y-34000000D03*
D16*
X140250000Y-28400000D03*
X140250000Y-39600000D03*
D10*
X147250000Y-36500000D03*
X147250000Y-31500000D03*
%TD*%
D11*
%TO.C,S1*%
X75915000Y-50960000D03*
D12*
X77920000Y-53500000D03*
D13*
X83000000Y-53500000D03*
D12*
X88080000Y-53500000D03*
D11*
X88842000Y-48420000D03*
D14*
X79190000Y-50960000D03*
X85540000Y-48420000D03*
%TD*%
D11*
%TO.C,S10*%
X94965000Y-89060000D03*
D12*
X96970000Y-91600000D03*
D13*
X102050000Y-91600000D03*
D12*
X107130000Y-91600000D03*
D11*
X107892000Y-86520000D03*
D14*
X98240000Y-89060000D03*
X104590000Y-86520000D03*
%TD*%
D11*
%TO.C,S4*%
X133065000Y-50960000D03*
D12*
X135070000Y-53500000D03*
D13*
X140150000Y-53500000D03*
D12*
X145230000Y-53500000D03*
D11*
X145992000Y-48420000D03*
D14*
X136340000Y-50960000D03*
X142690000Y-48420000D03*
%TD*%
D11*
%TO.C,ModeButton1*%
X56873000Y-89060000D03*
D12*
X58878000Y-91600000D03*
D13*
X63958000Y-91600000D03*
D12*
X69038000Y-91600000D03*
D11*
X69800000Y-86520000D03*
D14*
X60148000Y-89060000D03*
X66498000Y-86520000D03*
%TD*%
D15*
%TO.C,SW2*%
X94750000Y-31500000D03*
D10*
X94750000Y-36500000D03*
X94750000Y-34000000D03*
D16*
X102250000Y-28400000D03*
X102250000Y-39600000D03*
D10*
X109250000Y-36500000D03*
X109250000Y-31500000D03*
%TD*%
D11*
%TO.C,S11*%
X114015000Y-89060000D03*
D12*
X116020000Y-91600000D03*
D13*
X121100000Y-91600000D03*
D12*
X126180000Y-91600000D03*
D11*
X126942000Y-86520000D03*
D14*
X117290000Y-89060000D03*
X123640000Y-86520000D03*
%TD*%
D11*
%TO.C,S6*%
X94965000Y-70010000D03*
D12*
X96970000Y-72550000D03*
D13*
X102050000Y-72550000D03*
D12*
X107130000Y-72550000D03*
D11*
X107892000Y-67470000D03*
D14*
X98240000Y-70010000D03*
X104590000Y-67470000D03*
%TD*%
D11*
%TO.C,S2*%
X94965000Y-50960000D03*
D12*
X96970000Y-53500000D03*
D13*
X102050000Y-53500000D03*
D12*
X107130000Y-53500000D03*
D11*
X107892000Y-48420000D03*
D14*
X98240000Y-50960000D03*
X104590000Y-48420000D03*
%TD*%
D17*
%TO.C,U2*%
X55380000Y-31065000D03*
D18*
X55380000Y-33605000D03*
X55380000Y-36145000D03*
X55380000Y-38685000D03*
X55380000Y-41225000D03*
X55380000Y-43765000D03*
X55380000Y-46305000D03*
X55380000Y-48845000D03*
X55380000Y-51385000D03*
X55380000Y-53925000D03*
X55380000Y-56465000D03*
X55380000Y-59005000D03*
X70620000Y-59005000D03*
X70620000Y-56465000D03*
X70620000Y-53925000D03*
X70620000Y-51385000D03*
X70620000Y-48845000D03*
X70620000Y-46305000D03*
X70620000Y-43765000D03*
X70620000Y-41225000D03*
X70620000Y-38685000D03*
X70620000Y-36145000D03*
X70620000Y-33605000D03*
X70620000Y-31065000D03*
%TD*%
D11*
%TO.C,S9*%
X75915000Y-89060000D03*
D12*
X77920000Y-91600000D03*
D13*
X83000000Y-91600000D03*
D12*
X88080000Y-91600000D03*
D11*
X88842000Y-86520000D03*
D14*
X79190000Y-89060000D03*
X85540000Y-86520000D03*
%TD*%
D11*
%TO.C,S8*%
X133065000Y-70010000D03*
D12*
X135070000Y-72550000D03*
D13*
X140150000Y-72550000D03*
D12*
X145230000Y-72550000D03*
D11*
X145992000Y-67470000D03*
D14*
X136340000Y-70010000D03*
X142690000Y-67470000D03*
%TD*%
D11*
%TO.C,S12*%
X133065000Y-89060000D03*
D12*
X135070000Y-91600000D03*
D13*
X140150000Y-91600000D03*
D12*
X145230000Y-91600000D03*
D11*
X145992000Y-86520000D03*
D14*
X136340000Y-89060000D03*
X142690000Y-86520000D03*
%TD*%
D11*
%TO.C,S3*%
X114015000Y-50960000D03*
D12*
X116020000Y-53500000D03*
D13*
X121100000Y-53500000D03*
D12*
X126180000Y-53500000D03*
D11*
X126942000Y-48420000D03*
D14*
X117290000Y-50960000D03*
X123640000Y-48420000D03*
%TD*%
D19*
%TO.C,D10*%
X111415000Y-83310000D03*
X111415000Y-86610000D03*
%TD*%
D20*
%TO.C,LED11*%
X123550000Y-96750000D03*
X123550000Y-95250000D03*
D21*
X118450000Y-95250000D03*
D20*
X118450000Y-96750000D03*
%TD*%
%TO.C,LED5*%
X85550000Y-77750000D03*
X85550000Y-76250000D03*
D21*
X80450000Y-76250000D03*
D20*
X80450000Y-77750000D03*
%TD*%
%TO.C,LED10*%
X104550000Y-96750000D03*
X104550000Y-95250000D03*
D21*
X99450000Y-95250000D03*
D20*
X99450000Y-96750000D03*
%TD*%
%TO.C,ModeLED1*%
X66550000Y-96750000D03*
X66550000Y-95250000D03*
D21*
X61450000Y-95250000D03*
D20*
X61450000Y-96750000D03*
%TD*%
D19*
%TO.C,D5*%
X92415000Y-64310000D03*
X92415000Y-67610000D03*
%TD*%
D22*
%TO.C,R1*%
X63250000Y-38037500D03*
X63250000Y-40962500D03*
%TD*%
D20*
%TO.C,LED6*%
X104550000Y-77750000D03*
X104550000Y-76250000D03*
D21*
X99450000Y-76250000D03*
D20*
X99450000Y-77750000D03*
%TD*%
D19*
%TO.C,D1*%
X92415000Y-45310000D03*
X92415000Y-48610000D03*
%TD*%
%TO.C,D2*%
X111415000Y-45310000D03*
X111415000Y-48610000D03*
%TD*%
D20*
%TO.C,LED7*%
X123550000Y-77750000D03*
X123550000Y-76250000D03*
D21*
X118450000Y-76250000D03*
D20*
X118450000Y-77750000D03*
%TD*%
D19*
%TO.C,D9*%
X92415000Y-83310000D03*
X92415000Y-86610000D03*
%TD*%
%TO.C,D6*%
X111415000Y-64310000D03*
X111415000Y-67610000D03*
%TD*%
D20*
%TO.C,FuncLED1*%
X62550000Y-77750000D03*
X62550000Y-76250000D03*
D21*
X57450000Y-76250000D03*
D20*
X57450000Y-77750000D03*
%TD*%
D19*
%TO.C,D8*%
X149415000Y-64310000D03*
X149415000Y-67610000D03*
%TD*%
D20*
%TO.C,LED2*%
X104550000Y-58750000D03*
X104550000Y-57250000D03*
D21*
X99450000Y-57250000D03*
D20*
X99450000Y-58750000D03*
%TD*%
%TO.C,LED1*%
X85550000Y-58750000D03*
X85550000Y-57250000D03*
D21*
X80450000Y-57250000D03*
D20*
X80450000Y-58750000D03*
%TD*%
%TO.C,LED4*%
X143050000Y-58750000D03*
X143050000Y-57250000D03*
D21*
X137950000Y-57250000D03*
D20*
X137950000Y-58750000D03*
%TD*%
%TO.C,LED3*%
X123550000Y-58750000D03*
X123550000Y-57250000D03*
D21*
X118450000Y-57250000D03*
D20*
X118450000Y-58750000D03*
%TD*%
%TO.C,FuncLED2*%
X70550000Y-77750000D03*
X70550000Y-76250000D03*
D21*
X65450000Y-76250000D03*
D20*
X65450000Y-77750000D03*
%TD*%
%TO.C,LED9*%
X85550000Y-96750000D03*
X85550000Y-95250000D03*
D21*
X80450000Y-95250000D03*
D20*
X80450000Y-96750000D03*
%TD*%
D19*
%TO.C,D11*%
X130415000Y-83310000D03*
X130415000Y-86610000D03*
%TD*%
%TO.C,D4*%
X149415000Y-45310000D03*
X149415000Y-48610000D03*
%TD*%
D20*
%TO.C,LED12*%
X142550000Y-96750000D03*
X142550000Y-95250000D03*
D21*
X137450000Y-95250000D03*
D20*
X137450000Y-96750000D03*
%TD*%
%TO.C,LED8*%
X142550000Y-77750000D03*
X142550000Y-76250000D03*
D21*
X137450000Y-76250000D03*
D20*
X137450000Y-77750000D03*
%TD*%
D19*
%TO.C,D12*%
X149415000Y-83310000D03*
X149415000Y-86610000D03*
%TD*%
%TO.C,D7*%
X130415000Y-64310000D03*
X130415000Y-67610000D03*
%TD*%
%TO.C,D3*%
X130415000Y-45310000D03*
X130415000Y-48610000D03*
%TD*%
M02*
