%TF.GenerationSoftware,KiCad,Pcbnew,7.0.9*%
%TF.CreationDate,2024-04-10T10:39:18-07:00*%
%TF.ProjectId,macrov2.2.001,6d616372-6f76-4322-9e32-2e3030312e6b,2.2.001*%
%TF.SameCoordinates,Original*%
%TF.FileFunction,Profile,NP*%
%FSLAX46Y46*%
G04 Gerber Fmt 4.6, Leading zero omitted, Abs format (unit mm)*
G04 Created by KiCad (PCBNEW 7.0.9) date 2024-04-10 10:39:18*
%MOMM*%
%LPD*%
G01*
G04 APERTURE LIST*
%TA.AperFunction,Profile*%
%ADD10C,0.100000*%
%TD*%
%TA.AperFunction,Profile*%
%ADD11C,0.120000*%
%TD*%
G04 APERTURE END LIST*
D10*
X155000000Y-24000000D02*
G75*
G03*
X155000000Y-24000000I-1500000J0D01*
G01*
X50017767Y-107482233D02*
X154982233Y-107482233D01*
X53000000Y-24000000D02*
G75*
G03*
X53000000Y-24000000I-1500000J0D01*
G01*
X53000000Y-103500000D02*
G75*
G03*
X53000000Y-103500000I-1500000J0D01*
G01*
X47500000Y-22500000D02*
X47517767Y-104982233D01*
X157482233Y-22517767D02*
G75*
G03*
X154982233Y-20017767I-2500033J-33D01*
G01*
X157482233Y-104982233D02*
X157482233Y-22517767D01*
X50000000Y-20000000D02*
G75*
G03*
X47500000Y-22500000I0J-2500000D01*
G01*
X154982233Y-107482233D02*
G75*
G03*
X157482233Y-104982233I-33J2500033D01*
G01*
X47517767Y-104982233D02*
G75*
G03*
X50017767Y-107482233I2500033J33D01*
G01*
X155000000Y-103500000D02*
G75*
G03*
X155000000Y-103500000I-1500000J0D01*
G01*
X154982233Y-20017767D02*
X50000000Y-20000000D01*
D11*
%TO.C,LED11*%
X122700000Y-97500000D02*
X122700000Y-94500000D01*
X122700000Y-94500000D02*
X119300000Y-94500000D01*
X119300000Y-97500000D02*
X122700000Y-97500000D01*
X119300000Y-94500000D02*
X119300000Y-97500000D01*
%TO.C,LED5*%
X84700000Y-78500000D02*
X84700000Y-75500000D01*
X84700000Y-75500000D02*
X81300000Y-75500000D01*
X81300000Y-78500000D02*
X84700000Y-78500000D01*
X81300000Y-75500000D02*
X81300000Y-78500000D01*
%TO.C,LED10*%
X103700000Y-97500000D02*
X103700000Y-94500000D01*
X103700000Y-94500000D02*
X100300000Y-94500000D01*
X100300000Y-97500000D02*
X103700000Y-97500000D01*
X100300000Y-94500000D02*
X100300000Y-97500000D01*
%TO.C,ModeLED1*%
X65700000Y-97500000D02*
X65700000Y-94500000D01*
X65700000Y-94500000D02*
X62300000Y-94500000D01*
X62300000Y-97500000D02*
X65700000Y-97500000D01*
X62300000Y-94500000D02*
X62300000Y-97500000D01*
%TO.C,LED6*%
X103700000Y-78500000D02*
X103700000Y-75500000D01*
X103700000Y-75500000D02*
X100300000Y-75500000D01*
X100300000Y-78500000D02*
X103700000Y-78500000D01*
X100300000Y-75500000D02*
X100300000Y-78500000D01*
%TO.C,LED7*%
X122700000Y-78500000D02*
X122700000Y-75500000D01*
X122700000Y-75500000D02*
X119300000Y-75500000D01*
X119300000Y-78500000D02*
X122700000Y-78500000D01*
X119300000Y-75500000D02*
X119300000Y-78500000D01*
%TO.C,FuncLED1*%
X61700000Y-78500000D02*
X61700000Y-75500000D01*
X61700000Y-75500000D02*
X58300000Y-75500000D01*
X58300000Y-78500000D02*
X61700000Y-78500000D01*
X58300000Y-75500000D02*
X58300000Y-78500000D01*
%TO.C,LED2*%
X103700000Y-59500000D02*
X103700000Y-56500000D01*
X103700000Y-56500000D02*
X100300000Y-56500000D01*
X100300000Y-59500000D02*
X103700000Y-59500000D01*
X100300000Y-56500000D02*
X100300000Y-59500000D01*
%TO.C,LED1*%
X84700000Y-59500000D02*
X84700000Y-56500000D01*
X84700000Y-56500000D02*
X81300000Y-56500000D01*
X81300000Y-59500000D02*
X84700000Y-59500000D01*
X81300000Y-56500000D02*
X81300000Y-59500000D01*
%TO.C,LED4*%
X142200000Y-59500000D02*
X142200000Y-56500000D01*
X142200000Y-56500000D02*
X138800000Y-56500000D01*
X138800000Y-59500000D02*
X142200000Y-59500000D01*
X138800000Y-56500000D02*
X138800000Y-59500000D01*
%TO.C,LED3*%
X122700000Y-59500000D02*
X122700000Y-56500000D01*
X122700000Y-56500000D02*
X119300000Y-56500000D01*
X119300000Y-59500000D02*
X122700000Y-59500000D01*
X119300000Y-56500000D02*
X119300000Y-59500000D01*
%TO.C,FuncLED2*%
X69700000Y-78500000D02*
X69700000Y-75500000D01*
X69700000Y-75500000D02*
X66300000Y-75500000D01*
X66300000Y-78500000D02*
X69700000Y-78500000D01*
X66300000Y-75500000D02*
X66300000Y-78500000D01*
%TO.C,LED9*%
X84700000Y-97500000D02*
X84700000Y-94500000D01*
X84700000Y-94500000D02*
X81300000Y-94500000D01*
X81300000Y-97500000D02*
X84700000Y-97500000D01*
X81300000Y-94500000D02*
X81300000Y-97500000D01*
%TO.C,LED12*%
X141700000Y-97500000D02*
X141700000Y-94500000D01*
X141700000Y-94500000D02*
X138300000Y-94500000D01*
X138300000Y-97500000D02*
X141700000Y-97500000D01*
X138300000Y-94500000D02*
X138300000Y-97500000D01*
%TO.C,LED8*%
X141700000Y-78500000D02*
X141700000Y-75500000D01*
X141700000Y-75500000D02*
X138300000Y-75500000D01*
X138300000Y-78500000D02*
X141700000Y-78500000D01*
X138300000Y-75500000D02*
X138300000Y-78500000D01*
%TD*%
M02*
